SplineFontDB: 3.0
FontName: SocialAdventuresICONS
FullName: SocialAdventuresICONS
FamilyName: SocialAdventuresICONS
Weight: Medium
Copyright: Created by David Grajal, This font is Creative Commons.
UComments: "2012-4-10: Created." 
Version: 001.1
ItalicAngle: 0
UnderlinePosition: -100
UnderlineWidth: 50
Ascent: 800
Descent: 200
LayerCount: 2
Layer: 0 0 "Back"  1
Layer: 1 0 "Fore"  0
XUID: [1021 353 892704877 1751452]
FSType: 0
OS2Version: 0
OS2_WeightWidthSlopeOnly: 0
OS2_UseTypoMetrics: 1
CreationTime: 1334066534
ModificationTime: 1334149838
OS2TypoAscent: 0
OS2TypoAOffset: 1
OS2TypoDescent: 0
OS2TypoDOffset: 1
OS2TypoLinegap: 90
OS2WinAscent: 0
OS2WinAOffset: 1
OS2WinDescent: 0
OS2WinDOffset: 1
HheadAscent: 0
HheadAOffset: 1
HheadDescent: 0
HheadDOffset: 1
MarkAttachClasses: 1
DEI: 91125
Encoding: ISO8859-1
UnicodeInterp: none
NameList: Adobe Glyph List
DisplaySize: -24
AntiAlias: 1
FitToEm: 1
WinInfo: 32 32 4
BeginPrivate: 0
EndPrivate
BeginChars: 256 72

StartChar: a
Encoding: 97 97 0
Width: 779
Flags: W
HStem: 0 21G<32 748 32 32>
LayerCount: 2
Fore
SplineSet
748 0 m 1
 32 0 l 1
 32 0 29 9 32 57 c 1
 73 78 266 130 277 135 c 1
 278 171 l 1
 293 175 l 1
 293 175 299 231 299 240 c 1
 299 240 276 285 271 311 c 1
 271 311 252 311 250 330 c 0
 247 350 250 363 245 378 c 1
 242 392 253 407 262 404 c 1
 262 404 242 507 262 535 c 0
 276 555 319 606 420 624 c 1
 420 624 445 627 453 623 c 0
 459 621 458 619 446 606 c 1
 446 606 498 574 515 523 c 0
 525 491 521 422 515 404 c 1
 515 404 530 407 528 388 c 0
 525 357 524 300 502 311 c 1
 502 311 501 247 482 234 c 1
 482 234 476 184 485 182 c 1
 498 182 l 1
 498 182 503 141 513 130 c 1
 513 130 727 75 748 51 c 1
 749 25 748 0 748 0 c 1
EndSplineSet
EndChar

StartChar: b
Encoding: 98 98 1
Width: 967
Flags: W
HStem: 0 54<173.5 783 245 783 245 783> 0 140<173.5 473 346 473 346 783> 122 75<346 473 346 473> 165 203<346 523 523 736> 179 73<346 473 346 473> 234 75<346 473 346 473> 291 77<346 473 346 473> 350 111<365 473 346 698> 426 35<365 698 365 698> 540 54<260 813 260 260>
VStem: 100 54<127 442> 206 54<127 442 442 442 496 540> 346 127<122 140 122 140 179 197 122 197 234 252 122 252 291 309 350 368> 523 213<165 368 165 368> 813 54<89 540 540 540>
LayerCount: 2
Fore
SplineSet
206 594 m 1xa57e
 867 594 l 1
 867 89 l 2
 867 42 826 0 783 0 c 2
 209 0 l 2
 138 0 100 37 100 127 c 2
 100 496 l 1
 206 496 l 1
 206 594 l 1xa57e
206 127 m 2
 206 442 l 1
 154 442 l 1
 154 127 l 2
 154 81 165 59 179 59 c 0
 196 59 206 81 206 127 c 2
813 89 m 2
 813 540 l 1
 260 540 l 1
 260 127 l 2
 260 95 254 72 245 54 c 1
 783 54 l 2
 801 54 813 75 813 89 c 2
473 197 m 1
 473 179 l 1
 346 179 l 1x8afe
 346 197 l 1
 473 197 l 1
473 140 m 1x50fe
 473 122 l 1
 346 122 l 1xa57e
 346 140 l 1
 473 140 l 1x50fe
523 165 m 1x50fe
 523 368 l 1
 736 368 l 1
 736 165 l 1
 523 165 l 1x50fe
473 309 m 1xa57e
 473 291 l 1
 346 291 l 1xa2fe
 346 309 l 1
 473 309 l 1xa57e
473 252 m 1x8afe
 473 234 l 1
 346 234 l 1xa57e
 346 252 l 1
 473 252 l 1x8afe
473 368 m 1x90fe
 473 350 l 1
 346 350 l 1xa57e
 346 368 l 1
 473 368 l 1x90fe
365 426 m 1x90fe
 365 461 l 1
 698 461 l 1
 698 426 l 1
 365 426 l 1x90fe
EndSplineSet
EndChar

StartChar: c
Encoding: 99 99 2
Width: 909
Flags: W
HStem: 0 21G<139 770 139 139> 477 20G<150 758 758 758>
LayerCount: 2
Fore
SplineSet
564 213 m 1
 770 0 l 1
 139 0 l 1
 346 211 l 1
 454 109 l 1
 564 213 l 1
150 497 m 1
 758 497 l 1
 454 208 l 1
 150 497 l 1
603 250 m 1
 809 444 l 1
 809 37 l 1
 603 250 l 1
100 37 m 1
 100 444 l 1
 307 249 l 1
 100 37 l 1
EndSplineSet
EndChar

StartChar: d
Encoding: 100 100 3
Width: 688
Flags: W
HStem: -22 21G<83.5 106.5> 141 86<408.5 454.5> 501 86<388.5 462.5>
VStem: 203 86<347 401.5 347 426.5> 562 86<336 402>
LayerCount: 2
Fore
SplineSet
584 207 m 0
 540 163 483 141 426 141 c 0
 374 141 323 159 281 194 c 1
 240 94 l 1
 136 -10 l 1
 125 -18 113 -22 100 -22 c 0
 67 -22 40 7 40 39 c 0
 40 52 44 65 52 75 c 1
 155 179 l 1
 256 220 l 1
 221 262 203 314 203 366 c 0
 203 487 305 587 426 587 c 0
 546 587 648 485 648 365 c 0
 648 307 627 250 584 207 c 0
329 267 m 0
 356 241 391 227 426 227 c 0
 500 227 562 289 562 365 c 0
 562 439 499 501 426 501 c 0
 351 501 289 438 289 365 c 0
 289 329 302 294 329 267 c 0
EndSplineSet
EndChar

StartChar: e
Encoding: 101 101 4
Width: 769
Flags: W
HStem: -20 61<351.5 365 403 429> 170 35<365 365> 346 35<365 365> 608 20G<295 475.5>
VStem: 60 198<287.5 311 287.5 394.5> 222 36<288.5 311 287.5 312> 365 38<41 170 205 346 381 567> 510 36<288.5 311> 649 60<283.5 317.5>
LayerCount: 2
Fore
SplineSet
385 628 m 0xfb80
 566 628 709 484 709 305 c 0
 709 124 566 -20 385 -20 c 0
 205 -20 60 124 60 305 c 0
 60 484 205 628 385 628 c 0xfb80
403 41 m 1
 455 41 483 131 496 176 c 1
 465 173 434 171 403 170 c 1
 403 41 l 1
300 106 m 1
 315 70 338 41 365 41 c 1
 365 170 l 1
 334 171 303 173 273 176 c 1
 279 150 288 127 300 106 c 1
122 268 m 1
 135 253 168 233 228 222 c 1
 224 247 222 275 222 302 c 0xf780
 222 322 223 338 225 357 c 1
 179 366 152 373 131 382 c 1
 124 358 120 331 120 305 c 0
 120 292 120 279 122 268 c 1
258 302 m 0
 258 273 260 242 264 215 c 1
 298 209 331 206 365 205 c 1
 365 346 l 1
 329 347 293 349 259 353 c 1
 259 335 258 320 258 302 c 0
363 567 m 0
 318 549 280 479 264 387 c 1
 297 384 331 382 365 381 c 1
 365 567 l 1
 365 567 364 567 363 567 c 0
429 553 m 1
 420 559 410 567 403 567 c 1
 403 381 l 1
 438 382 471 384 505 387 c 1
 492 459 463 522 429 553 c 1
403 205 m 1
 438 206 471 209 504 214 c 1
 509 241 510 272 510 302 c 0
 510 320 510 335 509 352 c 1
 475 349 440 347 403 346 c 1
 403 205 l 1
544 357 m 1
 546 338 546 322 546 302 c 0
 546 275 544 246 541 221 c 1
 645 238 649 262 649 305 c 0
 649 330 645 357 637 381 c 1
 618 373 584 361 544 357 c 1
623 416 m 1
 595 478 542 528 480 550 c 1
 510 511 529 456 539 391 c 1
 593 401 615 410 623 416 c 1
198 490 m 1
 175 469 158 443 146 417 c 1
 155 409 170 408 229 392 c 1
 240 456 259 509 289 549 c 1
 255 533 225 519 198 490 c 1
198 118 m 1
 222 92 252 74 283 61 c 1
 260 93 245 134 235 182 c 1
 195 191 159 202 135 215 c 1
 150 178 169 145 198 118 c 1
571 118 m 1
 599 144 618 176 631 211 c 1
 605 199 571 189 534 181 c 1
 523 133 509 94 485 61 c 1
 516 74 547 92 571 118 c 1
EndSplineSet
EndChar

StartChar: f
Encoding: 102 102 5
Width: 769
Flags: W
HStem: -20 21G<295 475.5> 608 20G<295 475.5>
LayerCount: 2
Fore
SplineSet
385 628 m 0
 566 628 709 484 709 305 c 0
 709 124 566 -20 385 -20 c 0
 205 -20 60 124 60 305 c 0
 60 484 205 628 385 628 c 0
452 305 m 1
 552 405 l 1
 484 472 l 1
 385 372 l 1
 284 473 l 1
 217 405 l 1
 318 305 l 1
 217 205 l 1
 284 137 l 1
 385 238 l 1
 484 138 l 1
 552 205 l 1
 452 305 l 1
EndSplineSet
EndChar

StartChar: g
Encoding: 103 103 6
Width: 821
Flags: W
HStem: -44 21G<193 193> 151 126<145 593 228 243 435 593 228 654 435 435> 343 59<228 593 228 593> 468 126<228 228 228 593>
VStem: 100 128<277 343 402 468 277 526> 593 128<277 343 343 343 402 468 468 468>
LayerCount: 2
Fore
SplineSet
168 594 m 1
 654 594 l 2
 700 594 721 573 721 526 c 2
 721 216 l 2
 721 172 700 151 654 151 c 2
 435 151 l 1
 193 -44 l 1
 243 151 l 1
 168 151 l 2
 122 151 100 172 100 218 c 2
 100 526 l 2
 100 573 122 595 168 594 c 1
228 468 m 1
 228 402 l 1
 593 402 l 1
 593 468 l 1
 228 468 l 1
593 277 m 1
 593 343 l 1
 228 343 l 1
 228 277 l 1
 593 277 l 1
EndSplineSet
EndChar

StartChar: zero
Encoding: 48 48 7
Width: 1024
VWidth: 1024
Flags: W
HStem: 156 21G<280 283 280 280>
LayerCount: 2
Fore
SplineSet
310 617 m 2
 514 617 l 2
 580 617 635 562 635 496 c 2
 635 394 l 2
 635 328 580 273 514 273 c 2
 444 273 l 1
 432 219 352 156 283 156 c 2
 280 156 l 1
 303 175 312 225 312 254 c 0
 312 263 312 269 310 273 c 1
 244 273 190 328 190 394 c 2
 190 496 l 2
 190 562 244 617 310 617 c 2
EndSplineSet
EndChar

StartChar: one
Encoding: 49 49 8
Width: 350
Flags: W
HStem: 50 21G<163 186.667> 391 59<125.757 223.045>
VStem: 50 57<274.769 372.192> 242 58<274.769 372.192>
LayerCount: 2
Fore
SplineSet
175 450 m 256
 192.333 449.997 208.5 446.663 223.5 440 c 0
 238.5 433.333 251.667 424.333 263 413 c 0
 274.333 401.667 283.333 388.5 290 373.5 c 0
 296.667 358.5 300 342.333 300 325 c 0
 300 295 293.333 264 280 232 c 0
 266.667 200 252.333 170.333 237 143 c 0
 219 111 198.333 80 175 50 c 1
 151 80 130 111 112 143 c 0
 96.6667 170.333 82.5 200 69.5 232 c 0
 56.5 264 50 295 50 325 c 0
 50 342.334 53.3333 358.501 60 373.5 c 0
 66.6667 388.5 75.6667 401.667 87 413 c 0
 98.3333 424.333 111.5 433.333 126.5 440 c 0
 141.5 446.667 157.667 450 175 450 c 256
175 256 m 0
 193.667 256 209.5 262.5 222.5 275.5 c 0
 235.5 288.5 242 304.333 242 323 c 0
 242 342.334 235.5 358.501 222.5 371.5 c 0
 209.5 384.5 193.667 391 175 391 c 0
 155.667 391 139.5 384.5 126.5 371.5 c 0
 113.5 358.5 107 342.333 107 323 c 0
 107 304.333 113.5 288.5 126.5 275.5 c 0
 139.5 262.5 155.667 256 175 256 c 0
EndSplineSet
EndChar

StartChar: two
Encoding: 50 50 9
Width: 1024
VWidth: 1024
Flags: W
HStem: 211 105<217 321 217 321 217 360 360 464 503 607> 358 105<217 321 217 321 217 360 360 464 503 607> 506 105<217 321 217 321 217 360 360 464 503 607>
VStem: 217 104<211 316 211 316 358 463 506 611> 360 104<211 316 211 316 358 463 506 611> 503 104<211 316 211 316 358 463 506 611>
LayerCount: 2
Fore
SplineSet
217 611 m 1
 321 611 l 1
 321 506 l 1
 217 506 l 1
 217 611 l 1
360 611 m 1
 464 611 l 1
 464 506 l 1
 360 506 l 1
 360 611 l 1
503 611 m 1
 607 611 l 1
 607 506 l 1
 503 506 l 1
 503 611 l 1
217 463 m 1
 321 463 l 1
 321 358 l 1
 217 358 l 1
 217 463 l 1
360 463 m 1
 464 463 l 1
 464 358 l 1
 360 358 l 1
 360 463 l 1
503 463 m 1
 607 463 l 1
 607 358 l 1
 503 358 l 1
 503 463 l 1
217 316 m 1
 321 316 l 1
 321 211 l 1
 217 211 l 1
 217 316 l 1
360 316 m 1
 464 316 l 1
 464 211 l 1
 360 211 l 1
 360 316 l 1
503 316 m 1
 607 316 l 1
 607 211 l 1
 503 211 l 1
 503 316 l 1
EndSplineSet
EndChar

StartChar: three
Encoding: 51 51 10
Width: 1024
VWidth: 1024
Flags: W
HStem: 150 104<368.5 455.5 368.5 484> 636 20G<321 321 503 503>
VStem: 151 104<367.5 437.5 367.5 467> 361 102<461 728 461 728> 569 104<367.5 437.5>
LayerCount: 2
Fore
SplineSet
503 656 m 1
 602 619 673 523 673 411 c 0
 673 267 556 150 412 150 c 0
 268 150 151 267 151 411 c 0
 151 523 222 619 321 656 c 1
 321 540 l 1
 281 511 255 464 255 411 c 0
 255 324 325 254 412 254 c 0
 499 254 569 324 569 411 c 0
 569 464 543 511 503 540 c 1
 503 656 l 1
361 461 m 1
 361 728 l 1
 463 728 l 1
 463 461 l 1
 361 461 l 1
EndSplineSet
EndChar

StartChar: four
Encoding: 52 52 11
Width: 600
Flags: W
HStem: 25 21G<125 145> 100 95<200 360.045> 225 250<234.155 400 475 535.044>
VStem: 50 145<195 340.845> 225 325<239.956 459.53>
LayerCount: 2
Fore
SplineSet
370 195 m 1
 375 195 l 1
 375 150 l 2
 375 136 370.167 124.166 360.5 114.5 c 0
 350.833 104.833 339 100 325 100 c 2
 200 100 l 1
 125 25 l 1
 125 100 l 1
 100 100 l 2
 86.6667 100 75 104.833 65 114.5 c 0
 55 124.167 50 136 50 150 c 2
 50 300 l 2
 50 313.334 55 325.001 65 335 c 0
 75 345 86.6667 350 100 350 c 2
 195 350 l 1
 195 195 l 1
 370 195 l 1
500 475 m 2
 514 475 525.833 470 535.5 460 c 0
 545.166 450 549.999 438.333 550 425 c 2
 550 275 l 2
 550 261 545.167 249.167 535.5 239.5 c 0
 525.833 229.833 514 225 500 225 c 2
 475 225 l 1
 475 150 l 1
 400 225 l 1
 225 225 l 1
 225 425 l 2
 225 438.334 230 450.001 240 460 c 0
 250 470 261.667 475 275 475 c 2
 500 475 l 2
EndSplineSet
EndChar

StartChar: five
Encoding: 53 53 12
Width: 550
Flags: HW
LayerCount: 2
Fore
SplineSet
487 383 m 0
 491.667 385 495.333 384.833 498 382.5 c 0
 500.667 380.167 500.667 377 498 373 c 0
 468.667 330.333 444 297.833 424 275.5 c 0
 404 253.167 386.833 237.5 372.5 228.5 c 0
 358.167 219.499 346 215.833 336 217.5 c 0
 326 219.167 316.833 222.833 308.5 228.5 c 0
 300.167 234.167 291.667 240.5 283 247.5 c 0
 274.333 254.5 264 259 252 261 c 0
 240 263 225.667 260.833 209 254.5 c 0
 192.333 248.167 171.667 234.667 147 214 c 1
 192 37 l 1
 141 37 l 1
 50 398 l 1
 96 414 l 1
 123.333 434 146.167 447.5 164.5 454.5 c 0
 182.833 461.5 198.167 463.833 210.5 461.5 c 0
 222.833 459.167 233.167 453.667 241.5 445 c 0
 249.833 436.333 258.333 426.833 267 416.5 c 0
 275.667 406.167 285.333 395.833 296 385.5 c 0
 306.667 375.167 320.167 367.5 336.5 362.5 c 0
 352.833 357.501 373 356.168 397 358.5 c 0
 421 360.834 451 369.001 487 383 c 0
EndSplineSet
EndChar

StartChar: six
Encoding: 54 54 13
Width: 500
Flags: W
HStem: 150 275<64.9547 200 300 434.53>
LayerCount: 2
Fore
SplineSet
400 425 m 1
 413.333 425 425 420 435 410 c 0
 445 400 450 388.333 450 375 c 2
 450 200 l 2
 450 186 445 174.167 435 164.5 c 0
 425 154.833 413.333 150 400 150 c 2
 300 150 l 1
 300 75 l 1
 200 150 l 1
 100 150 l 2
 86 150 74.1666 154.833 64.5 164.5 c 0
 54.8333 174.167 50 186 50 200 c 2
 50 375 l 2
 50 388.333 54.8333 400 64.5 410 c 0
 74.1667 420 86 425 100 425 c 2
 400 425 l 1
EndSplineSet
EndChar

StartChar: seven
Encoding: 55 55 14
Width: 1024
VWidth: 1024
Flags: W
HStem: -7 158<391 429 391 526.5> 290 42<391 429> 683 146<388 440>
VStem: 360 96<505 543.5> 584 246<295.5 563.5>
LayerCount: 2
Fore
SplineSet
411 829 m 0
 642 829 830 642 830 411 c 0
 830 180 642 -7 411 -7 c 0
 180 -7 -7 180 -7 411 c 0
 -7 642 180 829 411 829 c 0
461 332 m 1
 461 349 464 364 470 375 c 0
 475 386 489 400 510 419 c 1
 540 444 560 466 570 484 c 0
 579 502 584 521 584 540 c 0
 584 587 565 624 527 652 c 0
 499 673 463 683 417 683 c 0
 359 683 315 668 287 639 c 0
 259 609 243 570 239 521 c 1
 360 505 l 1
 363 531 369 550 379 561 c 0
 388 571 400 577 415 577 c 0
 429 577 439 573 446 566 c 0
 453 559 456 550 456 537 c 0
 456 525 448 511 431 496 c 0
 399 467 379 447 370 436 c 0
 361 425 354 412 349 398 c 0
 345 384 342 367 342 345 c 2
 342 332 l 1
 461 332 l 1
410 290 m 0
 372 290 340 259 340 221 c 0
 340 182 372 151 410 151 c 0
 448 151 479 182 479 221 c 0
 479 259 448 290 410 290 c 0
EndSplineSet
EndChar

StartChar: eight
Encoding: 56 56 15
Width: 1024
VWidth: 1024
Flags: W
HStem: -7 157<378 446 378 527.5> 356 110<397 427> 672 157<378 446 378 378>
VStem: -6 157<376 445 376 526.5> 357 110<396 426> 673 157<377 445 445 445>
LayerCount: 2
Fore
SplineSet
412 -7 m 0
 181 -7 -6 180 -6 411 c 0
 -6 642 181 829 412 829 c 0
 643 829 830 642 830 411 c 0
 830 180 643 -7 412 -7 c 0
151 445 m 1
 151 376 l 1
 216 376 250 359 250 329 c 0
 250 309 235 282 203 251 c 1
 252 202 l 1
 283 233 310 249 330 249 c 0
 360 249 378 215 378 150 c 1
 446 150 l 1
 446 215 464 249 494 249 c 0
 514 249 541 233 572 202 c 1
 621 251 l 1
 590 282 574 309 574 329 c 0
 574 359 608 377 673 377 c 1
 673 445 l 1
 608 445 574 462 574 493 c 0
 574 513 590 540 621 571 c 1
 572 620 l 1
 541 588 514 573 494 573 c 0
 464 573 446 606 446 672 c 1
 378 672 l 1
 378 606 360 573 330 573 c 0
 310 573 283 588 252 620 c 1
 203 571 l 1
 235 540 250 513 250 493 c 0
 250 462 216 445 151 445 c 1
412 466 m 0
 442 466 467 441 467 411 c 0
 467 381 442 356 412 356 c 0
 382 356 357 381 357 411 c 0
 357 441 382 466 412 466 c 0
EndSplineSet
EndChar

StartChar: nine
Encoding: 57 57 16
Width: 1024
VWidth: 1024
Flags: W
HStem: -8 210<296.5 338 486 527.5> 809 20G<296.5 527.5>
VStem: -6 220<295.5 391 202 526.5> 338 148<202 389 202 389> 610 220<295.5 391 391 391>
LayerCount: 2
Fore
SplineSet
412 -8 m 0
 181 -8 -6 180 -6 411 c 0
 -6 642 181 829 412 829 c 0
 643 829 830 642 830 411 c 0
 830 180 643 -8 412 -8 c 0
610 391 m 1
 412 562 l 1
 214 391 l 1
 214 202 l 1
 338 202 l 1
 338 389 l 1
 486 389 l 1
 486 202 l 1
 610 202 l 1
 610 391 l 1
412 690 m 1
 115 433 l 1
 156 396 l 1
 412 616 l 1
 668 396 l 1
 709 433 l 1
 412 690 l 1
EndSplineSet
EndChar

StartChar: colon
Encoding: 58 58 17
Width: 1024
VWidth: 1024
Flags: W
HStem: -7 182<296.5 527.5> 424 47<383 421> 710 119<373 429>
VStem: 503 327<295.5 623.5>
LayerCount: 2
Fore
SplineSet
412 -7 m 0
 181 -7 -6 180 -6 411 c 0
 -6 642 181 829 412 829 c 0
 643 829 830 642 830 411 c 0
 830 180 643 -7 412 -7 c 0
616 187 m 1
 616 298 612 369 574 424 c 0
 560 445 520 458 503 466 c 1
 476 440 441 424 401 424 c 0
 365 424 332 437 307 458 c 1
 294 451 260 440 250 424 c 0
 212 369 209 298 209 187 c 1
 223 175 l 1
 602 175 l 1
 616 187 l 1
401 710 m 0
 345 710 300 657 300 590 c 0
 300 524 345 471 401 471 c 0
 457 471 503 524 503 590 c 0
 503 657 457 710 401 710 c 0
EndSplineSet
EndChar

StartChar: semicolon
Encoding: 59 59 18
Width: 1024
VWidth: 1024
Flags: W
HStem: 53 43<402.5 419.5 402.5 779> 220 43<406 418 406 419.5> 574 196<405 418 405 420>
LayerCount: 2
Fore
SplineSet
411 220 m 0
 394 220 378 213 367 202 c 0
 356 191 349 175 349 158 c 0
 349 141 356 126 367 115 c 0
 378 103 394 96 411 96 c 0
 428 96 443 103 454 115 c 1
 466 126 472 141 472 158 c 0
 472 175 466 191 454 202 c 0
 443 213 428 220 411 220 c 0
477 462 m 1
 477 499 469 527 457 546 c 0
 444 565 428 574 412 574 c 0
 396 574 380 565 368 546 c 0
 355 527 347 499 347 462 c 1
 355 396 366 346 377 313 c 0
 388 279 400 263 412 263 c 0
 424 263 436 279 447 313 c 0
 458 346 468 396 477 462 c 1
446 748 m 2
 814 112 l 2
 818 105 820 97 820 90 c 0
 820 70 804 53 779 53 c 2
 45 53 l 2
 20 53 4 69 4 89 c 0
 4 96 6 104 10 112 c 2
 377 748 l 2
 385 763 398 770 412 770 c 0
 424 770 437 763 446 748 c 2
EndSplineSet
EndChar

StartChar: less
Encoding: 60 60 19
Width: 581
Flags: W
HStem: 286 29<396.095 414.659> 329.5 40.5<357.127 414.687>
VStem: 495 28<459.893 498.841> 500.5 29.5<390.47 489.094>
LayerCount: 2
Fore
SplineSet
523 490 m 0xe0
 529.67 470.667 532.003 452.167 530 434.5 c 0
 527.997 416.833 523.331 400.5 516 385.5 c 0
 508.667 370.5 499.5 356.666 488.5 344 c 0
 477.5 331.332 466 320.666 454 312 c 1
 463 299 l 2
 465.667 295.667 467.333 291.333 468 286 c 0
 468.667 280.667 468.333 276 467 272 c 2
 442 194 l 2
 440.667 190 438.333 185.833 435 181.5 c 0
 431.667 177.167 428.333 173.667 425 171 c 2
 192 6 l 2
 186.667 2 181.167 0 175.5 0 c 0
 169.833 0 165 2.66667 161 8 c 2
 55 161 l 2
 51 166.333 49.6667 172.5 51 179.5 c 0
 52.3333 186.5 55.6667 192 61 196 c 2
 294 361 l 2
 297.335 363 301.501 364.833 306.5 366.5 c 0
 311.5 368.167 316.333 369 321 369 c 2
 400 370 l 1
 404.001 369.333 408.168 367.833 412.5 365.5 c 0
 416.833 363.167 420.333 360.333 423 357 c 2
 437 337 l 1
 445.667 343.667 454.667 351.667 464 361 c 0
 473.335 370.334 481.168 381 487.5 393 c 0
 493.836 405 498.169 418.333 500.5 433 c 0xd0
 502.827 447.667 500.994 463.333 495 480 c 0
 491.667 489.336 494.667 495.669 504 499 c 256
 513.333 502.333 519.667 499.333 523 490 c 0xe0
415 256 m 0
 421.667 260.667 426.333 266.667 429 274 c 0
 431.667 281.334 432.333 288.668 431 296 c 1
 428.333 294 425.833 292.333 423.5 291 c 0
 421.167 289.667 418.667 288.333 416 287 c 0
 414.667 286.336 412.333 286.002 409 286 c 0
 402.332 286.002 397.998 288.669 396 294 c 0
 394 298 393.833 302 395.5 306 c 0
 397.167 310 399.667 313 403 315 c 0
 403.667 315 407.667 317 415 321 c 1
 408.333 326.337 400.833 329.17 392.5 329.5 c 0
 384.167 329.833 376.333 327.333 369 322 c 0
 359.667 315.332 354.167 306.665 352.5 296 c 0
 350.839 285.333 353.005 275.333 359 266 c 0
 365.667 256.667 374.333 251 385 249 c 0
 395.667 247.001 405.667 249.335 415 256 c 0
EndSplineSet
EndChar

StartChar: equal
Encoding: 61 61 20
Width: 1024
VWidth: 1024
Flags: W
VStem: 73 854<403.892 547.693>
LayerCount: 2
Fore
SplineSet
288 725 m 0
 228.667 725 178 704 136 662 c 0
 94 620 73 569.333 73 510 c 1
 71.6667 478 77.5 445.666 90.5 413 c 0
 103.5 380.333 120.333 350.666 141 324 c 0
 161.667 297.333 188.167 268.666 220.5 238 c 0
 252.834 207.333 283.167 180.667 311.5 158 c 0
 339.833 135.333 373 108.667 411 78 c 0
 449 47.3333 479.333 21.6667 502 1 c 1
 522.667 17.6667 548.667 38.5 580 63.5 c 0
 611.333 88.5 637.167 109.167 657.5 125.5 c 0
 677.833 141.833 701.333 161.667 728 185 c 0
 754.668 208.333 776.501 228.667 793.5 246 c 0
 810.501 263.333 828.334 283.5 847 306.5 c 0
 865.667 329.5 880.167 351 890.5 371 c 0
 900.833 391 909.5 413 916.5 437 c 0
 923.5 461 927 485.333 927 510 c 0
 927 570 906.833 620.834 866.5 662.5 c 0
 826.166 704.166 776.333 725 717 725 c 0
 695 725 672.5 719 649.5 707 c 0
 626.5 694.996 606.5 680.33 589.5 663 c 0
 572.5 645.665 557 628.499 543 611.5 c 0
 529 594.5 518.667 580 512 568 c 2
 501 550 l 1
 498.331 554.67 494.664 561.004 490 569 c 0
 485.333 577 475.333 591 460 611 c 0
 444.667 631 429.167 648.667 413.5 664 c 0
 397.833 679.333 378.5 693.333 355.5 706 c 0
 332.5 718.668 310 725.001 288 725 c 0
EndSplineSet
EndChar

StartChar: greater
Encoding: 62 62 21
Width: 1035
Flags: W
HStem: -52 21G 610 20G
LayerCount: 2
Fore
SplineSet
63 283 m 1
 362 283 509 629 808 630 c 1
 859 519 912 407 964 295 c 1
 665 295 539 -27 219 -52 c 1
 167 60 115 171 63 283 c 1
159 230 m 1
 193 157 227 85 261 12 c 1
 346 28 418 70 487 121 c 1
 448 136 419 168 402 204 c 0
 383 246 380 292 386 338 c 1
 317 288 245 245 159 230 c 1
868 348 m 1
 833 421 800 494 766 566 c 1
 681 550 608 508 539 456 c 1
 579 442 607 409 624 374 c 1
 643 332 647 286 640 240 c 1
 709 291 782 333 868 348 c 1
342 104 m 1
 337 114 333 123 328 133 c 1
 326 132 323 131 320 131 c 1
 321 120 323 110 325 99 c 1
 331 100 337 101 342 104 c 1
 342 104 l 1
364 122 m 1
 367 127 370 133 373 139 c 1
 362 142 352 145 342 149 c 1
 341 146 339 143 338 141 c 1
 346 135 355 128 364 122 c 1
297 104 m 1
 301 114 304 123 308 132 c 1
 305 133 302 135 301 136 c 1
 294 128 287 121 280 113 c 1
 285 109 291 105 297 104 c 1
374 168 m 1
 373 174 372 180 370 186 c 0
 369 186 l 1
 369 186 l 1
 360 180 351 175 341 170 c 0
 341 169 l 1
 343 167 343 164 343 161 c 1
 355 163 364 165 374 168 c 1
263 135 m 1
 274 139 283 142 293 147 c 1
 292 150 291 151 291 154 c 1
 280 153 268 153 257 153 c 1
 258 147 260 141 263 135 c 1
 263 135 l 1
333 179 m 1
 339 188 346 197 352 206 c 1
 347 210 342 213 337 214 c 1
 333 204 329 194 326 183 c 1
 328 182 331 180 333 179 c 1
292 166 m 1
 294 168 295 171 296 174 c 1
 288 180 280 187 271 194 c 1
 266 189 264 185 262 178 c 1
 272 174 283 170 292 166 c 1
314 184 m 1
 313 195 311 205 310 216 c 1
 304 215 298 213 292 211 c 1
 292 211 l 1
 292 211 l 1
 295 205 296 202 299 196 c 1
 296 202 295 205 292 211 c 1
 297 201 301 191 306 181 c 1
 306 181 l 1
 309 183 311 183 314 184 c 1
698 373 m 1
 687 399 675 423 663 448 c 1
 657 445 653 443 648 439 c 1
 660 414 670 389 682 364 c 1
 688 368 691 370 698 373 c 1
768 407 m 1
 757 431 744 456 733 481 c 1
 727 479 724 477 717 474 c 1
 729 450 741 425 752 401 c 1
 759 403 762 404 768 407 c 1
733 391 m 1
 721 417 709 441 697 466 c 1
 691 463 688 461 682 458 c 1
 694 434 706 409 717 384 c 1
 723 386 726 388 733 391 c 1
EndSplineSet
EndChar

StartChar: question
Encoding: 63 63 22
Width: 643
Flags: W
HStem: -26 72<289 352 289 394> -26 110<302 302 302 336 302 394> 401 238<302 302> 435 204<289 352 289 289>
VStem: 60 120<273.5 290> 242 60<299 314> 336 62<169 191.5 169 209 169 209> 463 120<163.5 213 163.5 370>
LayerCount: 2
Fore
SplineSet
250 329 m 0x6f
 261 342 278 346 302 348 c 1
 302 280 l 1
 262 284 242 287 242 311 c 0
 242 317 244 323 250 329 c 0x6f
336 136 m 1
 336 209 l 1
 383 205 398 202 398 181 c 0
 398 157 379 142 336 136 c 1
392 331 m 0
 416 318 421 312 421 301 c 1
 427 298 l 1
 463 370 l 1
 458 374 l 1
 453 370 450 368 447 368 c 0
 444 368 441 368 437 371 c 1
 388 390 365 399 336 399 c 1
 336 413 l 2
 336 420 340 425 352 428 c 1
 352 435 l 1
 289 435 l 1x9f
 289 428 l 1
 300 425 302 419 302 413 c 2
 302 401 l 1
 225 398 180 361 180 303 c 0
 180 244 212 223 302 215 c 1
 302 138 l 1
 240 144 209 168 209 189 c 1
 203 192 l 1
 170 117 l 1
 175 114 l 1
 180 117 182 118 185 118 c 0
 186 118 190 118 192 116 c 0
 230 97 267 86 302 84 c 1x6f
 302 69 l 2
 302 61 300 56 289 53 c 1
 289 46 l 1
 352 46 l 1xaf
 352 53 l 1
 340 56 336 60 336 69 c 2
 336 84 l 1
 413 88 463 127 463 185 c 0
 463 241 421 270 344 277 c 1
 336 277 l 1
 336 347 l 1
 354 346 373 341 392 331 c 0
425 476 m 1
 518 436 583 344 583 236 c 0
 583 91 466 -26 322 -26 c 0
 177 -26 60 91 60 236 c 0
 60 344 125 436 218 476 c 1
 153 619 l 1
 153 633 162 639 175 639 c 2
 468 639 l 2
 481 639 490 634 490 619 c 1
 425 476 l 1
EndSplineSet
EndChar

StartChar: at
Encoding: 64 64 23
Width: 1024
VWidth: 1024
Flags: W
HStem: 703 20G<208 261.264 345 398.264 483 536.264 621 674.264 758 811.219>
LayerCount: 2
Fore
SplineSet
134 386 m 1
 134 -4 l 1
 894 -4 l 1
 894 386 l 1
 134 386 l 1
174 346 m 1
 854 346 l 1
 854 316 l 1
 529 316 l 1
 529 36 l 1
 499 36 l 1
 499 316 l 1
 174 316 l 1
 174 346 l 1
134 536 m 1
 134 376 l 1
 894 376 l 1
 894 536 l 1
 134 536 l 1
234 516 m 1
 294 516 l 1
 234 396 l 1
 174 396 l 1
 234 516 l 1
374 516 m 1
 434 516 l 1
 374 396 l 1
 314 396 l 1
 374 516 l 1
514 516 m 1
 574 516 l 1
 514 396 l 1
 454 396 l 1
 514 516 l 1
654 516 m 1
 714 516 l 1
 654 396 l 1
 594 396 l 1
 654 516 l 1
794 516 m 1
 854 516 l 1
 794 396 l 1
 734 396 l 1
 794 516 l 1
106 713 m 1
 135 556 l 1
 882 695 l 1
 853 852 l 1
 106 713 l 1
208 712 m 1
 267 723 l 1
 230 594 l 1
 171 583 l 1
 208 712 l 1
345 738 m 1
 404 749 l 1
 367 620 l 1
 308 609 l 1
 345 738 l 1
483 763 m 1
 542 774 l 1
 505 645 l 1
 446 634 l 1
 483 763 l 1
621 789 m 1
 680 800 l 1
 643 671 l 1
 584 660 l 1
 621 789 l 1
758 814 m 1
 817 825 l 1
 780 697 l 1
 721 686 l 1
 758 814 l 1
EndSplineSet
EndChar

StartChar: A
Encoding: 65 65 24
Width: 1024
VWidth: 1024
Flags: W
HStem: 156 57<464 609 464 655> 257 77<294 298 298 307 272 308.5> 381 69<297.5 299 272 310> 494 164<506 509 506 506> 499 32 552 176<254 270.5 550.5 567>
VStem: 169 44<566.5 580 580 658> 169 59<221 277 221 658> 169 70<434 487 434 658> 169 103<334 381 334 658> 232 60<582 698> 312 197<580 658 566.5 658> 419 45<213 302> 529 60<582 698> 568 87<263 494 494 494> 609 46<213 263 263 263 580 658 156 658>
LayerCount: 2
Fore
SplineSet
169 658 m 1xf211
 213 658 l 1xf211
 213 580 l 2
 213 553 235 531 262 531 c 0xea11
 290 531 312 553 312 580 c 2
 312 658 l 1
 509 658 l 1xf211
 509 580 l 2
 509 553 531 531 559 531 c 0xea11
 586 531 609 553 609 580 c 2
 609 658 l 1
 655 658 l 1
 655 156 l 1
 169 156 l 1
 169 658 l 1xf211
262 728 m 0xe420
 279 728 292 715 292 698 c 2
 292 582 l 2
 292 565 279 552 262 552 c 0
 246 552 232 565 232 582 c 2
 232 698 l 2
 232 715 246 728 262 728 c 0xe420
559 728 m 0
 575 728 589 715 589 698 c 2
 589 582 l 2
 589 565 575 552 559 552 c 0
 542 552 529 565 529 582 c 2
 529 698 l 2xe404
 529 715 542 728 559 728 c 0
367 364 m 1
 382 369 393 376 401 387 c 0
 409 397 413 411 413 427 c 0
 413 451 405 469 388 481 c 0
 372 493 347 499 315 499 c 0
 302 499 290 498 277 496 c 0
 265 494 252 491 239 487 c 1
 239 434 l 1xe888
 250 439 260 443 271 446 c 0
 282 448 292 450 303 450 c 0
 317 450 328 447 336 441 c 0
 344 435 348 426 348 416 c 0
 348 404 344 395 336 390 c 0
 328 384 315 381 299 381 c 2
 272 381 l 1
 272 334 l 1xe840
 298 334 l 2
 316 334 330 331 339 324 c 1
 349 318 354 308 354 295 c 0
 354 283 349 273 340 267 c 0
 331 260 317 257 300 257 c 0
 288 257 276 258 264 262 c 0
 252 265 240 270 228 277 c 1
 228 221 l 1
 241 217 254 215 267 213 c 0
 280 211 293 207 306 207 c 0
 343 207 371 215 390 229 c 0
 409 244 419 265 419 293 c 0xe908
 419 311 414 327 405 339 c 0
 397 351 384 360 367 364 c 1
464 263 m 1
 464 213 l 1
 609 213 l 1
 609 263 l 1xf009
 568 263 l 1
 568 494 l 1
 506 494 l 1xf002
 462 480 l 1
 462 431 l 1
 506 445 l 1
 506 263 l 1
 464 263 l 1
EndSplineSet
EndChar

StartChar: B
Encoding: 66 66 25
Width: 842
Flags: W
HStem: 573 23<366 421.047>
LayerCount: 2
Fore
SplineSet
789 386 m 2
 800 375 800 358 789 346 c 2
 735 291 l 2
 724 280 707 280 695 291 c 1
 683 304 l 1
 674 312 670 327 675 334 c 1
 684 340 681 358 664 374 c 1
 640 399 609 400 597 387 c 0
 592 383 576 366 576 366 c 1
 502 439 l 1
 514 451 l 1
 514 451 517 454 523 461 c 0
 546 484 522 510 522 510 c 1
 457 574 366 573 366 573 c 1
 365 596 l 1
 548 643 617 563 642 538 c 0
 665 515 689 491 695 485 c 0
 708 472 695 435 714 414 c 0
 723 405 735 401 744 401 c 1
 754 410 770 407 778 398 c 2
 789 386 l 2
464 251 m 1
 640 93 l 1
 665 68 664 28 639 2 c 1
 613 -23 573 -23 548 3 c 2
 387 173 l 1
 237 -8 l 1
 223 -23 198 -23 183 -8 c 2
 144 32 l 2
 129 46 129 71 144 86 c 2
 316 246 l 1
 233 326 l 2
 206 352 190 360 168 353 c 0
 146 345 115 345 86 364 c 0
 24 404 28 479 28 479 c 1
 33 487 l 1
 33 487 89 451 96 447 c 1
 105 440 136 426 164 469 c 0
 193 512 169 539 161 544 c 0
 154 548 98 585 98 585 c 1
 103 593 l 1
 103 593 168 626 229 590 c 1
 229 588 244 579 250 574 c 0
 289 539 289 500 282 468 c 0
 276 439 282 429 305 404 c 1
 388 321 l 1
 487 422 l 1
 559 348 l 1
 464 251 l 1
617 24 m 1
 630 36 630 59 617 72 c 0
 604 85 583 85 569 72 c 1
 557 59 557 37 569 25 c 0
 583 12 604 10 617 24 c 1
EndSplineSet
EndChar

StartChar: C
Encoding: 67 67 26
Width: 589
Flags: W
HStem: -50 21G<212 212 378 378> 28 239 196 71<216.5 334.5 249 366> 238 65<98.5 154> 578 69<219 334.5> 642 20G<286.5 296.5>
VStem: 171 239<389 455.5>
LayerCount: 2
Fore
SplineSet
445 211 m 0xca
 446 211 446 211 447 211 c 2
 541 32 l 1
 441 24 l 1
 378 -50 l 1
 295 81 l 1
 212 -50 l 1
 145 25 l 1
 48 32 l 1
 142 211 l 2
 143 212 l 1
 144 205 147 200 151 194 c 0
 158 184 169 178 182 171 c 1
 193 167 203 165 212 165 c 0
 222 165 232 167 238 171 c 1
 243 167 248 162 254 159 c 0
 264 153 277 149 292 149 c 0
 306 149 318 153 329 159 c 0
 335 162 339 167 343 171 c 1
 352 167 361 165 371 165 c 0
 380 165 389 167 400 171 c 1
 415 178 424 184 431 194 c 0
 435 200 439 205 441 212 c 1
 442 211 443 211 445 211 c 0xca
525 447 m 0
 529 441 531 432 531 422 c 0
 531 412 529 404 525 398 c 1
 520 387 462 390 451 390 c 2
 449 390 l 1
 451 390 l 1
 461 385 515 367 516 356 c 1
 518 348 516 340 512 330 c 0
 504 308 489 303 480 303 c 0
 474 303 430 329 428 331 c 1
 425 332 l 1
 426 331 l 2
 432 325 478 285 474 275 c 1
 472 267 468 260 461 253 c 0
 451 243 442 238 431 238 c 0x9a
 425 238 388 281 382 287 c 2
 381 288 l 1
 381 285 l 1
 385 277 410 224 404 216 c 0
 399 210 393 204 383 201 c 0
 376 198 369 196 363 196 c 0
 350 196 329 252 323 262 c 1
 323 264 l 1
 323 262 l 2
 323 252 326 194 316 189 c 1
 310 184 301 182 292 182 c 0
 281 182 273 184 267 189 c 1
 257 194 260 252 260 262 c 2
 260 264 l 1
 259 262 l 2
 255 252 233 196 219 196 c 0xaa
 214 196 207 198 199 201 c 0
 190 204 184 210 179 216 c 0
 172 224 197 277 201 285 c 1
 203 288 l 1
 199 287 l 1
 193 281 157 238 151 238 c 0
 142 238 132 243 122 253 c 0
 115 260 110 267 109 275 c 1
 106 285 149 325 155 331 c 1
 158 332 l 1
 154 331 l 1
 152 329 108 303 104 303 c 0
 93 303 80 308 70 330 c 0
 66 340 65 348 66 356 c 0
 67 367 122 385 132 390 c 1
 134 390 l 1
 132 390 l 2
 122 390 64 387 58 398 c 1
 53 404 52 412 52 422 c 0
 52 432 53 441 58 447 c 0
 64 456 122 453 132 453 c 2
 134 453 l 1
 132 454 l 2
 122 458 67 477 66 489 c 0
 65 496 66 505 70 514 c 0
 80 536 93 540 104 540 c 0
 108 540 152 514 154 512 c 1
 158 511 l 1
 155 514 l 2
 149 520 106 559 109 570 c 0
 110 577 115 584 122 592 c 1
 132 601 142 605 151 605 c 1
 151 605 l 1
 157 605 193 565 199 558 c 1
 203 555 l 1
 201 559 l 2
 197 567 172 619 179 629 c 0
 184 635 190 639 199 643 c 0
 207 646 214 647 219 647 c 1
 219 647 l 1
 219 647 l 1x9a
 233 647 255 592 259 581 c 1
 260 579 l 1
 260 581 l 2
 260 592 257 650 267 656 c 0
 273 660 281 662 292 662 c 0xc6
 301 662 310 660 316 656 c 0
 326 650 323 592 323 581 c 2
 323 579 l 1
 323 581 l 1
 329 592 350 647 363 647 c 0
 369 647 376 646 383 643 c 0
 393 639 399 635 404 629 c 1
 410 619 385 567 381 559 c 1
 381 555 l 1
 382 558 l 1
 388 565 425 605 431 605 c 1
 431 605 l 1
 431 605 l 1
 442 605 451 601 461 592 c 1
 468 584 472 577 474 570 c 0
 478 559 432 520 426 514 c 1
 425 511 l 1
 428 512 l 1
 430 514 474 540 480 540 c 1
 480 540 l 1
 480 540 l 1
 489 540 504 536 512 514 c 0
 516 505 518 496 516 489 c 1
 515 477 461 458 451 454 c 2
 449 453 l 1
 451 453 l 2
 462 453 520 456 525 447 c 0
292 267 m 0xca
 377 267 446 337 446 422 c 0
 446 508 377 578 292 578 c 0
 206 578 135 508 135 422 c 0
 135 337 206 267 292 267 c 0xca
292 303 m 0x9a
 358 303 410 356 410 422 c 0
 410 489 358 542 292 542 c 0
 225 542 171 489 171 422 c 0
 171 356 225 303 292 303 c 0x9a
EndSplineSet
EndChar

StartChar: D
Encoding: 68 68 27
Width: 790
Flags: W
HStem: -16 21G<187 187 602 602> 600 20G<395 395>
LayerCount: 2
Fore
SplineSet
316 378 m 1
 395 620 l 1
 474 378 l 1
 730 378 l 1
 523 228 l 1
 602 -16 l 1
 395 134 l 1
 187 -16 l 1
 267 228 l 1
 60 378 l 1
 316 378 l 1
EndSplineSet
EndChar

StartChar: E
Encoding: 69 69 28
Width: 649
Flags: W
HStem: 0 21G<263 406 263 263> 185 138<80 263 80 263 406 589> 478 20G<263 406 406 406>
VStem: 263 143<0 185 0 185 323 498>
LayerCount: 2
Fore
SplineSet
406 323 m 1
 589 323 l 1
 589 185 l 1
 406 185 l 1
 406 0 l 1
 263 0 l 1
 263 185 l 1
 80 185 l 1
 80 323 l 1
 263 323 l 1
 263 498 l 1
 406 498 l 1
 406 323 l 1
EndSplineSet
EndChar

StartChar: F
Encoding: 70 70 29
Width: 545
Flags: W
HStem: 362 167<255 300.5> 529 136<255 300.5>
VStem: 60 136<424 470 424 510.5> 360 132<424 470>
LayerCount: 2
Fore
SplineSet
492 451 m 0x70
 492 368 428 287 386 226 c 0
 296 97 283 -12 283 -12 c 1
 281 -21 273 -21 271 -12 c 1
 271 -12 254 97 166 226 c 1
 93 328 60 368 60 451 c 0
 60 570 155 665 275 665 c 0
 394 665 492 570 492 451 c 0x70
277 362 m 0xb0
 324 362 360 401 360 447 c 0
 360 493 324 529 277 529 c 0
 233 529 196 493 196 447 c 0
 196 401 233 362 277 362 c 0xb0
EndSplineSet
EndChar

StartChar: G
Encoding: 71 71 30
Width: 765
Flags: W
HStem: -17 134<229.5 266.5 554 590.5> 164 72<240.5 346 280 346 378 478 510 601> 236 77<280 346 378 478 510 601> 313 23<256 256 256 346 378 478 510 601> 336 77 413 72 562 20G<59 59.5> 563 20G<70 98>
VStem: 315 191<31.5 68.5> 346 32<236 313 236 313 336 417> 478 28 601 72<236 313 313 313 336 401 401 401>
LayerCount: 2
Fore
SplineSet
315 50 m 0xa590
 315 87 285 117 248 117 c 0
 211 117 181 87 181 50 c 0
 181 13 211 -17 248 -17 c 0
 285 -17 315 13 315 50 c 0xa590
639 50 m 0
 638 87 609 117 572 117 c 0
 536 117 506 87 506 50 c 0
 506 13 536 -17 572 -17 c 0
 609 -17 639 13 639 50 c 0
634 470 m 2
 656 469 673 452 673 430 c 2
 673 205 l 2
 673 182 655 164 632 164 c 2
 250 164 l 2
 231 164 214 179 211 198 c 1
 140 452 l 1
 140 452 128 498 107 504 c 0
 74 513 28 495 28 548 c 0
 28 582 59 582 59 582 c 2xd690
 60 582 66 583 74 583 c 0
 122 583 179 565 201 501 c 1
 634 470 l 2
601 336 m 1xa970
 601 401 l 1
 510 408 l 1
 510 336 l 1
 601 336 l 1xa970
378 336 m 1
 478 336 l 1
 478 410 l 1
 378 417 l 1
 378 336 l 1
478 313 m 1
 378 313 l 1
 378 236 l 1
 478 236 l 1
 478 313 l 1
346 419 m 1
 218 427 l 1
 248 336 l 1
 346 336 l 1
 346 419 l 1
256 313 m 1
 280 236 l 1
 346 236 l 1
 346 313 l 1
 256 313 l 1
510 236 m 1
 601 236 l 1
 601 313 l 1
 510 313 l 1
 510 236 l 1
EndSplineSet
EndChar

StartChar: H
Encoding: 72 72 31
Width: 976
Flags: W
HStem: 0 54<154 281 335 461 515 642 696 822> 180 54<154 281 154 281 335 461 515 642 696 822> 361 54<154 281 154 281 335 461 515 642 696 822> 541 54<154 281 154 154 335 335 335 461 515 642 515 515 696 696 696 822>
VStem: 100 54<54 54 54 180 234 361 415 541> 281 54<54 180 234 361 415 541> 461 54<54 180 234 361 415 541> 642 54<54 180 234 361 415 541> 822 54<54 180 180 180 234 361 361 361 415 541 541 541>
LayerCount: 2
Fore
SplineSet
100 0 m 1
 100 595 l 1
 876 595 l 1
 876 0 l 1
 100 0 l 1
515 361 m 1
 515 234 l 1
 642 234 l 1
 642 361 l 1
 515 361 l 1
515 54 m 1
 642 54 l 1
 642 180 l 1
 515 180 l 1
 515 54 l 1
642 541 m 1
 515 541 l 1
 515 415 l 1
 642 415 l 1
 642 541 l 1
822 234 m 1
 822 361 l 1
 696 361 l 1
 696 234 l 1
 822 234 l 1
696 54 m 1
 822 54 l 1
 822 180 l 1
 696 180 l 1
 696 54 l 1
822 415 m 1
 822 541 l 1
 696 541 l 1
 696 415 l 1
 822 415 l 1
154 361 m 1
 154 234 l 1
 281 234 l 1
 281 361 l 1
 154 361 l 1
154 54 m 1
 281 54 l 1
 281 180 l 1
 154 180 l 1
 154 54 l 1
281 541 m 1
 154 541 l 1
 154 415 l 1
 281 415 l 1
 281 541 l 1
461 234 m 1
 461 361 l 1
 335 361 l 1
 335 234 l 1
 461 234 l 1
335 54 m 1
 461 54 l 1
 461 180 l 1
 335 180 l 1
 335 54 l 1
461 415 m 1
 461 541 l 1
 335 541 l 1
 335 415 l 1
 461 415 l 1
EndSplineSet
EndChar

StartChar: I
Encoding: 73 73 32
Width: 841
Flags: W
HStem: 51 128<100 228 100 228> 81 65<314 741 314 741> 233 130<100 228 100 228> 255 65<314 741 314 741> 418 129<100 228 100 228> 439 65<314 741 314 741>
VStem: 100 128<51 179 51 179 233 363 418 547>
LayerCount: 2
Fore
SplineSet
228 547 m 1xaa
 228 418 l 1
 100 418 l 1
 100 547 l 1
 228 547 l 1xaa
228 363 m 1
 228 233 l 1
 100 233 l 1
 100 363 l 1
 228 363 l 1
228 179 m 1
 228 51 l 1
 100 51 l 1
 100 179 l 1
 228 179 l 1
741 504 m 1x56
 741 439 l 1
 314 439 l 1
 314 504 l 1
 741 504 l 1x56
741 320 m 1
 741 255 l 1
 314 255 l 1
 314 320 l 1
 741 320 l 1
741 146 m 1
 741 81 l 1
 314 81 l 1
 314 146 l 1
 741 146 l 1
EndSplineSet
EndChar

StartChar: J
Encoding: 74 74 33
Width: 813
Flags: W
HStem: 36 55<120 248 120 248 342 470 565 693> 176 55<120 248 120 248 342 470 565 693> 316 55<120 248 120 248 342 470 565 693> 447 148<100 268 100 268 100 322 322 490 545 713>
VStem: 100 168<447 595 447 595> 120 128<36 91 36 91 176 231 316 371> 322 168<447 595 447 595> 342 128<36 91 36 91 176 231 316 371> 545 168<447 595 447 595> 565 128<36 91 36 91 176 231 316 371>
LayerCount: 2
Fore
SplineSet
268 447 m 1xfa80
 100 447 l 1
 100 595 l 1
 268 595 l 1
 268 447 l 1xfa80
120 316 m 1xf680
 120 371 l 1
 248 371 l 1
 248 316 l 1
 120 316 l 1xf680
120 176 m 1
 120 231 l 1
 248 231 l 1
 248 176 l 1
 120 176 l 1
120 36 m 1
 120 91 l 1
 248 91 l 1
 248 36 l 1
 120 36 l 1
490 447 m 1
 322 447 l 1
 322 595 l 1
 490 595 l 1
 490 447 l 1
342 316 m 1xf980
 342 371 l 1
 470 371 l 1
 470 316 l 1
 342 316 l 1xf980
342 176 m 1
 342 231 l 1
 470 231 l 1
 470 176 l 1
 342 176 l 1
342 36 m 1
 342 91 l 1
 470 91 l 1
 470 36 l 1
 342 36 l 1
713 447 m 1
 545 447 l 1
 545 595 l 1
 713 595 l 1
 713 447 l 1
565 316 m 1xfa40
 565 371 l 1
 693 371 l 1
 693 316 l 1
 565 316 l 1xfa40
565 176 m 1
 565 231 l 1
 693 231 l 1
 693 176 l 1
 565 176 l 1
565 36 m 1
 565 91 l 1
 693 91 l 1
 693 36 l 1
 565 36 l 1
EndSplineSet
EndChar

StartChar: K
Encoding: 75 75 34
Width: 880
Flags: W
HStem: 66 21G<120.5 138>
LayerCount: 2
Fore
SplineSet
128 66 m 0
 113 66 98 71 86 81 c 0
 57 104 52 147 76 176 c 2
 268 414 l 2
 289 440 326 447 355 430 c 2
 538 323 l 1
 700 523 l 2
 723 551 766 556 795 532 c 0
 824 509 828 466 805 437 c 2
 607 193 l 2
 586 168 549 161 520 178 c 2
 337 284 l 1
 181 91 l 2
 167 74 148 66 128 66 c 0
EndSplineSet
EndChar

StartChar: L
Encoding: 76 76 35
Width: 744
Flags: W
HStem: 0 21G<100 244 100 100 300 300 300 444 500 500 500 644> 575 20G<500 644 644 644>
VStem: 100 144<0 430 0 430> 300 144<0 320 0 320> 500 144<0 595 0 595>
LayerCount: 2
Fore
SplineSet
244 430 m 1
 244 0 l 1
 100 0 l 1
 100 430 l 1
 244 430 l 1
444 320 m 1
 444 0 l 1
 300 0 l 1
 300 320 l 1
 444 320 l 1
644 595 m 1
 644 0 l 1
 500 0 l 1
 500 595 l 1
 644 595 l 1
EndSplineSet
EndChar

StartChar: M
Encoding: 77 77 36
Width: 734
Flags: W
HStem: -12 21G<251.5 398.5> 582 20G<409 482.5>
LayerCount: 2
Fore
SplineSet
674 334 m 1
 409 334 l 1
 409 602 l 1
 556 602 674 484 674 337 c 0
 674 336 674 335 674 334 c 1
325 250 m 1
 591 250 l 1
 591 253 l 2
 591 106 472 -12 325 -12 c 0
 178 -12 60 106 60 253 c 0
 60 400 178 519 325 519 c 1
 325 250 l 1
EndSplineSet
EndChar

StartChar: N
Encoding: 78 78 37
Width: 793
Flags: W
HStem: 0 71<381 415 381 691> 191 56<381 415> 486 168<344 410 383.5 410 383.5 451>
LayerCount: 2
Fore
SplineSet
754 108 m 2
 760 97 763 84 763 72 c 0
 763 30 730 0 691 0 c 2
 103 0 l 2
 64 0 30 32 30 72 c 0
 30 84 33 97 40 108 c 2
 335 618 l 2
 347 640 370 654 397 654 c 0
 423 654 446 640 459 618 c 2
 754 108 l 2
344 486 m 1
 344 247 l 1
 451 247 l 1
 451 486 l 1
 344 486 l 1
398 191 m 0
 364 191 338 165 338 130 c 0
 338 97 364 71 398 71 c 0
 432 71 458 97 458 130 c 0
 458 164 432 191 398 191 c 0
EndSplineSet
EndChar

StartChar: O
Encoding: 79 79 38
Width: 830
Flags: W
HStem: 1 21G<362 362> 560 20G<681 681>
LayerCount: 2
Fore
SplineSet
790 481 m 1
 362 1 l 1
 90 271 l 1
 188 370 l 1
 345 214 l 1
 681 580 l 1
 790 481 l 1
EndSplineSet
EndChar

StartChar: P
Encoding: 80 80 39
Width: 766
Flags: W
HStem: 0 27<268 497 268 508 257 497> 579 27<268 497 268 268>
VStem: 80 27<188 417 188 428 188 428> 659 27<188 417 417 417>
LayerCount: 2
Fore
SplineSet
508 606 m 1
 686 428 l 1
 686 177 l 1
 508 0 l 1
 257 0 l 1
 80 177 l 1
 80 428 l 1
 257 606 l 1
 508 606 l 1
659 188 m 1
 659 417 l 1
 497 579 l 1
 268 579 l 1
 107 417 l 1
 107 188 l 1
 268 27 l 1
 497 27 l 1
 659 188 l 1
283 545 m 1
 483 545 l 1
 625 403 l 1
 625 202 l 1
 483 61 l 1
 283 61 l 1
 141 202 l 1
 141 403 l 1
 283 545 l 1
EndSplineSet
EndChar

StartChar: Q
Encoding: 81 81 40
Width: 1024
VWidth: 1024
Flags: W
HStem: -16 138<225.725 334.276 457 587> 282 99<229.524 317.5> 511 97<235 341.641> 738 126<232 371.728>
VStem: 60 140<147.724 256.276> 360 97<147.724 239.39> 587 94<124 262.886> 810 130<138 297.801>
LayerCount: 2
Fore
SplineSet
160 864 m 2
 132 863.997 108.333 854.33 89 835 c 0
 69.6667 815.665 60 791.999 60 764 c 2
 60 84 l 2
 60 56 69.6667 32.3333 89 13 c 0
 108.333 -6.33333 132 -16 160 -16 c 2
 840 -16 l 2
 868 -16 891.667 -6.33333 911 13 c 0
 930.333 32.3333 940 56 940 84 c 2
 940 764 l 2
 940.001 792 930.334 815.667 911 835 c 0
 891.666 854.333 867.999 864 840 864 c 2
 160 864 l 2
232 738 m 1
 310.667 735.333 385.667 717.667 457 685 c 0
 528.333 652.333 589.833 609.333 641.5 556 c 0
 693.167 502.667 734.167 439.667 764.5 367 c 0
 794.833 294.333 810 218 810 138 c 0
 810 130 810 130 810 120 c 1
 681 124 l 1
 681 131 681 131 681 138 c 0
 680.999 222 660.832 299.667 620.5 371 c 0
 580.166 442.333 525.333 499.167 456 541.5 c 0
 386.667 583.833 310.667 606 228 608 c 1
 232 738 l 1
235 511 m 1
 299.667 507.667 358.833 489 412.5 455 c 0
 466.167 421 508.667 376 540 320 c 0
 571.333 264 587 203.333 587 138 c 0
 587 131.333 586.667 125 586 119 c 1
 457 126 l 1
 457 132 457 132 457 138 c 0
 457 203.333 435 259.333 391 306 c 0
 347 352.667 293 377.667 229 381 c 1
 235 511 l 1
280 282 m 0
 302 282 320.833 274.166 336.5 258.5 c 0
 352.167 242.833 360 224 360 202 c 0
 360 180 352.167 161.167 336.5 145.5 c 0
 320.833 129.833 302 122 280 122 c 0
 258 122 239.167 129.833 223.5 145.5 c 0
 207.833 161.167 200 180 200 202 c 0
 200 224 207.834 242.833 223.5 258.5 c 0
 239.167 274.167 258 282 280 282 c 0
EndSplineSet
EndChar

StartChar: R
Encoding: 82 82 41
Width: 770
Flags: W
HStem: -23 107<338 435 338 474.5> 363 49<370 402 370 435 338 402> 526 101<370 402>
LayerCount: 2
Fore
SplineSet
435 84 m 1
 435 363 l 1
 338 363 l 1
 338 84 l 1
 435 84 l 1
386 412 m 0
 418 412 443 437 443 470 c 0
 443 501 418 526 386 526 c 0
 354 526 329 501 329 470 c 0
 329 438 354 412 386 412 c 0
385 627 m 0
 564 627 710 482 710 302 c 0
 710 123 564 -23 385 -23 c 0
 205 -23 60 123 60 302 c 0
 60 482 205 627 385 627 c 0
EndSplineSet
EndChar

StartChar: S
Encoding: 83 83 42
Width: 791
Flags: W
HStem: 1 54<267 327 378 408 459 527 222 327> 551 72<96 685 106 115 170 170 170 208 259 259 259 353 433 433 433 527 578 578 578 625 680 685 680 680>
LayerCount: 2
Fore
SplineSet
685 623 m 2
 704 623 721 607 721 587 c 0
 721 567 704 551 685 551 c 2
 680 551 l 1
 572 1 l 1
 222 1 l 1
 115 551 l 1
 106 551 l 2
 86 551 70 567 70 587 c 0
 70 607 86 623 106 623 c 2
 685 623 l 2
368 537 m 1
 353 551 l 1
 259 551 l 1
 244 537 l 1
 306 475 l 1
 368 537 l 1
213 331 m 1
 233 228 l 1
 281 276 l 1
 219 337 l 1
 213 331 l 1
244 363 m 1
 306 301 l 1
 368 363 l 1
 306 424 l 1
 244 363 l 1
393 337 m 1
 332 276 l 1
 393 214 l 1
 455 276 l 1
 393 337 l 1
419 363 m 1
 480 301 l 1
 542 363 l 1
 480 424 l 1
 419 363 l 1
393 388 m 1
 455 450 l 1
 393 511 l 1
 332 450 l 1
 393 388 l 1
219 511 m 1
 184 477 l 1
 198 409 l 1
 219 388 l 1
 281 450 l 1
 219 511 l 1
306 250 m 1
 244 188 l 1
 306 127 l 1
 368 188 l 1
 306 250 l 1
393 163 m 1
 332 101 l 1
 378 55 l 1
 408 55 l 1
 455 101 l 1
 393 163 l 1
480 127 m 1
 542 188 l 1
 480 250 l 1
 419 188 l 1
 480 127 l 1
560 221 m 1
 580 324 l 1
 567 337 l 1
 506 276 l 1
 560 221 l 1
599 419 m 1
 609 470 l 1
 567 511 l 1
 506 450 l 1
 567 388 l 1
 599 419 l 1
542 537 m 1
 527 551 l 1
 433 551 l 1
 419 537 l 1
 480 475 l 1
 542 537 l 1
176 519 m 1
 208 551 l 1
 170 551 l 1
 176 519 l 1
253 129 m 1
 267 55 l 1
 327 55 l 1
 253 129 l 1
544 139 m 1
 459 55 l 1
 527 55 l 1
 544 139 l 1
617 513 m 1
 625 551 l 1
 578 551 l 1
 617 513 l 1
EndSplineSet
EndChar

StartChar: T
Encoding: 84 84 43
Width: 1061
Flags: W
HStem: 206 45<345 456.5> 287 38<827 1011 827 1011> 354 44<409 456.5> 543 20G<670 686 890 890>
VStem: 60 87<274 279.5 330.5 334> 254 155<272.5 279.5 330.5 337.5> 641 66<154 455 455 455>
LayerCount: 2
Fore
SplineSet
241 320 m 2
 248 320 254 327 254 334 c 0
 254 341 248 347 241 347 c 2
 161 347 l 2
 154 347 147 341 147 334 c 0
 147 327 154 320 161 320 c 2
 241 320 l 2
241 262 m 2
 248 262 254 269 254 276 c 0
 254 283 248 289 241 289 c 2
 161 289 l 2
 154 289 147 283 147 276 c 0
 147 269 154 262 161 262 c 2
 241 262 l 2
409 251 m 1
 504 251 578 217 641 154 c 1
 641 455 l 1
 579 389 504 354 409 354 c 1
 409 251 l 1
807 427 m 1
 780 454 l 1
 890 563 l 1
 917 537 l 1
 807 427 l 1
827 287 m 1
 827 325 l 1
 1011 325 l 1
 1011 287 l 1
 827 287 l 1
780 150 m 1
 807 177 l 1
 917 67 l 1
 890 41 l 1
 780 150 l 1
678 563 m 0
 694 563 707 551 707 536 c 2
 707 74 l 2
 707 59 694 47 678 47 c 0
 662 47 650 59 650 74 c 1
 603 132 520 206 396 206 c 2
 345 206 l 1
 457 17 l 1
 389 -32 l 1
 372 -41 354 -30 344 -18 c 1
 205 206 l 1
 130 206 l 1
 130 206 60 244 60 304 c 0
 60 364 130 398 130 398 c 1
 396 398 l 2
 520 398 603 475 650 536 c 1
 650 551 662 563 678 563 c 0
EndSplineSet
EndChar

StartChar: U
Encoding: 85 85 44
Width: 574
Flags: W
HStem: -19 21G<288 288> 477 20G<208 364 364 364>
VStem: 209 155
LayerCount: 2
Fore
SplineSet
364 226 m 1
 534 226 l 1
 288 -19 l 1
 40 228 l 1
 210 228 l 1
 208 497 l 1
 364 497 l 1
 364 226 l 1
EndSplineSet
EndChar

StartChar: V
Encoding: 86 86 45
Width: 879
Flags: W
HStem: 1 128<100 228 100 228 100 284 284 413 467 596> 183 130<100 228 100 228 100 284 284 413> 368 129<100 228 100 228 100 284 284 413 467 596 651 779>
VStem: 100 128<1 129 1 129 183 313 368 497> 284 129<1 129 1 129 183 313 368 497> 467 129<1 129 1 129 184 314 368 497> 651 128<1 131 1 131 184 314 368 497>
LayerCount: 2
Fore
SplineSet
228 497 m 1
 228 368 l 1
 100 368 l 1
 100 497 l 1
 228 497 l 1
413 497 m 1
 413 368 l 1
 284 368 l 1
 284 497 l 1
 413 497 l 1
228 313 m 1
 228 183 l 1
 100 183 l 1
 100 313 l 1
 228 313 l 1
413 313 m 1
 413 183 l 1
 284 183 l 1
 284 313 l 1
 413 313 l 1
228 129 m 1
 228 1 l 1
 100 1 l 1
 100 129 l 1
 228 129 l 1
413 129 m 1
 413 1 l 1
 284 1 l 1
 284 129 l 1
 413 129 l 1
596 497 m 1
 596 368 l 1
 467 368 l 1
 467 497 l 1
 596 497 l 1
779 497 m 1
 779 368 l 1
 651 368 l 1
 651 497 l 1
 779 497 l 1
596 314 m 1
 596 184 l 1
 467 184 l 1
 467 314 l 1
 596 314 l 1
596 129 m 1
 596 1 l 1
 467 1 l 1
 467 129 l 1
 596 129 l 1
779 314 m 1
 779 184 l 1
 651 184 l 1
 651 314 l 1
 779 314 l 1
779 131 m 1
 779 1 l 1
 651 1 l 1
 651 131 l 1
 779 131 l 1
EndSplineSet
EndChar

StartChar: W
Encoding: 87 87 46
Width: 574
Flags: W
HStem: 0 21G<210 366 210 210> 496 20G<286 286>
VStem: 210 155
LayerCount: 2
Fore
SplineSet
210 271 m 1
 40 271 l 1
 286 516 l 1
 534 269 l 1
 364 269 l 1
 366 0 l 1
 210 0 l 1
 210 271 l 1
EndSplineSet
EndChar

StartChar: X
Encoding: 88 88 47
Width: 712
Flags: W
HStem: -20 20G<356 456 356 356 554 554 554 663> -5 146<153 193> 258 95<104 174> 449 103<104 224.5>
VStem: 100 147<47.5 88> 356 100<0 69.5> 554 109<0 120>
LayerCount: 2
Fore
SplineSet
247 68 m 0x7e
 247 27 213 -5 173 -5 c 0
 133 -5 100 27 100 68 c 0
 100 108 133 141 173 141 c 0
 213 141 247 108 247 68 c 0x7e
456 0 m 1xbe
 356 0 l 1
 356 139 244 258 104 258 c 1
 104 353 l 1
 289 353 456 222 456 0 c 1xbe
663 0 m 1
 554 0 l 1
 554 240 345 449 104 449 c 1
 104 552 l 1
 400 552 663 327 663 0 c 1
EndSplineSet
EndChar

StartChar: Y
Encoding: 89 89 48
Width: 799
Flags: W
HStem: -40 57<276 292.5 276 306> 177 63 177 141
VStem: 187 57<72.5 108.5> 489 210<200 226 226 226 294 475 475 475 539 585>
LayerCount: 2
Fore
SplineSet
102 394 m 1xd8
 84 430 99 467 124 485 c 1
 66 666 458 568 489 539 c 1
 489 585 l 2
 489 598 500 609 512 609 c 2
 675 609 l 2
 688 609 699 598 699 585 c 2
 699 200 l 2
 699 188 688 177 675 177 c 2
 512 177 l 2
 500 177 489 188 489 200 c 2
 489 226 l 1
 410 175 371 47 370 42 c 0
 357 -10 328 -40 284 -40 c 0
 240 -40 187 3 187 97 c 0
 187 120 195 156 210 183 c 1
 195 183 l 2
 137 183 70 211 91 296 c 1
 69 335 84 378 102 394 c 1xd8
190 392 m 0
 203 391 203 380 190 380 c 0
 133 380 131 320 183 318 c 0xb8
 194 317 194 306 183 306 c 0
 131 306 140 240 195 240 c 2
 255 240 l 2
 276 240 285 227 285 214 c 0
 285 190 244 138 244 98 c 0
 244 47 268 17 284 17 c 0
 301 17 311 31 313 48 c 0
 325 127 413 261 489 294 c 1
 489 475 l 1
 382 528 288 532 243 533 c 0
 175 536 141 482 211 467 c 1
 226 465 225 452 213 452 c 0
 142 452 138 399 190 392 c 0
EndSplineSet
EndChar

StartChar: Z
Encoding: 90 90 49
Width: 799
Flags: W
HStem: -33 20G<117 123 123 287> 278 141 356 63 579 57<505.5 522>
VStem: 100 210<11 57 4.5 121 121 302 370 396> 555 57<487.5 523.5>
LayerCount: 2
Fore
SplineSet
697 202 m 1xdc
 715 166 700 129 675 111 c 1
 733 -70 341 28 310 57 c 1
 310 11 l 2
 310 -2 299 -13 287 -13 c 2
 123 -13 l 2
 111 -13 100 -2 100 11 c 2
 100 396 l 2
 100 408 111 419 123 419 c 2
 287 419 l 2
 299 419 310 408 310 396 c 2
 310 370 l 1
 388 421 428 549 429 554 c 0
 441 606 471 636 514 636 c 0
 559 636 612 592 612 499 c 0
 612 476 603 440 589 413 c 1
 603 413 l 2
 662 413 729 385 707 300 c 1
 730 261 715 218 697 202 c 1xdc
609 203 m 0
 596 205 596 216 609 216 c 0
 666 216 668 276 616 278 c 0xdc
 605 279 605 290 616 290 c 0
 668 290 659 356 603 356 c 2
 544 356 l 2xbc
 523 356 513 369 513 382 c 0
 513 406 555 458 555 498 c 0
 555 549 530 579 514 579 c 0
 497 579 488 565 486 548 c 0
 474 468 386 335 310 302 c 1
 310 121 l 1
 417 68 511 64 556 62 c 0
 624 60 658 114 588 129 c 1
 573 131 574 144 585 144 c 0
 656 144 661 197 609 203 c 0
EndSplineSet
EndChar

StartChar: bracketleft
Encoding: 91 91 50
Width: 580
Flags: W
HStem: 0 26<279 301 279 420> 102 30<279 301> 529 63<240 340 340 343.5 240 444> 618 43<236.5 240 240 340>
VStem: 100 36<132 529 132 596> 100 152<60 75 54 596> 328 152<54 60 60 75> 444 36<132 529 529 529>
CounterMasks: 1 70
LayerCount: 2
Fore
SplineSet
290 26 m 0xf6
 312 26 328 44 328 64 c 0
 328 86 312 102 290 102 c 0
 268 102 252 86 252 64 c 0
 252 44 268 26 290 26 c 0xf6
167 661 m 2
 413 661 l 2
 453 661 480 634 480 596 c 2
 480 60 l 2
 480 27 453 0 420 0 c 2
 160 0 l 2
 127 0 100 27 100 60 c 2
 100 596 l 2
 100 634 127 661 167 661 c 2
240 618 m 2
 233 618 228 612 228 605 c 0
 228 598 233 592 240 592 c 2
 340 592 l 2
 347 592 352 598 352 605 c 0
 352 612 347 618 340 618 c 2
 240 618 l 2
444 132 m 1xf9
 444 529 l 1
 136 529 l 1
 136 132 l 1
 444 132 l 1xf9
EndSplineSet
EndChar

StartChar: backslash
Encoding: 92 92 51
Width: 769
Flags: W
HStem: 0 26<374 396 374 590> 102 22<374 396> 604 96<196 573 196 196>
VStem: 100 96<124 604 124 620 124 642> 100 247<54 620> 423 246<58 75> 573 96<124 604 604 604>
LayerCount: 2
Fore
SplineSet
590 700 m 2xf4
 634 700 669 664 669 620 c 2
 669 80 l 2
 669 36 634 0 590 0 c 2
 179 0 l 2
 135 0 100 36 100 80 c 2
 100 620 l 2
 100 664 135 700 179 700 c 2
 590 700 l 2xf4
573 124 m 1xf2
 573 604 l 1
 196 604 l 1
 196 124 l 1
 573 124 l 1xf2
385 26 m 0
 407 26 423 44 423 64 c 0
 423 86 407 102 385 102 c 0
 363 102 347 86 347 64 c 0xec
 347 44 363 26 385 26 c 0
EndSplineSet
EndChar

StartChar: egrave
Encoding: 232 232 52
Width: 1000
LayerCount: 2
Back
SplineSet
874.509 470.11 m 0
 880.137 512.283 850.614 548.643 814.292 553.323 c 2
 687.948 569.46 l 1
 649.389 754.083 l 1
 558.741 765.675 l 1
 468.093 777.267 l 1
 382.582 608.492 l 1
 256.594 624.593 l 2
 219.998 629.21 182.111 601.499 176.565 559.316 c 0
 176.474 558.272 131.95 217.853 131.95 217.853 c 2
 125.795 170.162 156.708 138.393 192.458 133.758 c 2
 750.156 62.4609 l 2
 785.634 57.9883 823.747 80.9287 829.885 128.628 c 2
 829.885 128.628 874.481 469.039 874.509 470.11 c 0
  Spiro
    874.509 470.11 o
    869.485 509.352 o
    847.269 539.064 o
    814.292 553.323 [
    687.948 569.46 v
    649.389 754.083 v
    558.741 765.675 v
    468.093 777.267 v
    382.582 608.492 v
    256.594 624.593 ]
    220.847 619.11 o
    191.623 595.983 o
    176.565 559.316 o
    164.978 470.476 o
    143.477 305.997 o
    131.95 217.853 v
    136.942 175.92 o
    159.543 147.001 o
    192.458 133.758 [
    750.156 62.4609 ]
    785.197 67.0142 o
    814.394 89.3109 o
    829.885 128.628 v
    841.428 216.771 o
    862.947 381.253 o
    0 0 z
  EndSpiro
479.44 738.756 m 1
 553.985 729.243 l 1
 628.522 719.722 l 1
 642.106 575.346 l 1
 428.434 602.66 l 1
 479.44 738.756 l 1
  Spiro
    479.44 738.756 v
    553.985 729.243 v
    628.522 719.722 v
    642.106 575.346 v
    428.434 602.66 v
    0 0 z
  EndSpiro
556.413 446.422 m 4
 554.141 430.394 539.175 419.225 523 421.475 c 4
 506.816 423.725 495.551 438.538 497.824 454.567 c 4
 500.097 470.596 515.054 481.765 531.237 479.515 c 4
 547.412 477.265 558.687 462.442 556.413 446.422 c 4
  Spiro
    556.413 446.422 o
    550.344 432.342 o
    538.332 423.375 o
    523 421.475 o
    508.787 427.483 o
    499.739 439.378 o
    497.824 454.567 o
    503.891 468.647 o
    515.901 477.614 o
    531.237 479.515 o
    545.446 473.505 o
    554.497 461.608 o
    0 0 z
  EndSpiro
490.832 419.737 m 6
 470.093 422.627 454.71 407.723 451.745 386.825 c 6
 439.107 297.808 l 6
 436.652 280.482 459.638 277.288 462.102 294.604 c 6
 474.412 381.326 l 5
 481.795 380.3 l 5
 456.228 200.168 l 5
 489.132 195.596 l 5
 500.67 276.883 l 5
 508.053 275.856 l 5
 496.306 194.597 l 5
 529.21 190.025 l 5
 554.986 370.121 l 5
 562.159 369.122 l 5
 549.849 282.399 l 6
 547.376 264.958 570.206 261.781 572.634 279.231 c 6
 585.208 367.835 l 6
 587.944 387.104 579.198 407.453 556.432 410.611 c 6
 490.832 419.737 l 6
  Spiro
    490.832 419.737 ]
    472.156 417.14 o
    458.577 405.272 o
    451.745 386.825 [
    439.107 297.808 ]
    443.421 285.436 o
    454.511 283.893 o
    462.102 294.604 [
    474.412 381.326 v
    481.795 380.3 v
    456.228 200.168 v
    489.132 195.596 v
    500.67 276.883 v
    508.053 275.856 v
    496.306 194.597 v
    529.21 190.025 v
    554.986 370.121 v
    562.159 369.122 v
    549.849 282.399 ]
    554.108 269.956 o
    565.109 268.426 o
    572.634 279.231 [
    585.208 367.835 ]
    584.028 386.77 o
    574.605 402.412 o
    556.432 410.611 [
    0 0 z
  EndSpiro
350.032 470.218 m 4
 347.787 454.378 332.849 443.362 316.665 445.612 c 4
 300.49 447.862 289.197 462.523 291.443 478.363 c 4
 293.689 494.202 308.627 505.219 324.812 502.969 c 4
 340.986 500.719 352.278 486.058 350.032 470.218 c 4
  Spiro
    350.032 470.218 o
    343.989 456.31 o
    331.996 447.466 o
    316.665 445.612 o
    302.45 451.574 o
    293.384 463.346 o
    291.443 478.363 o
    297.487 492.27 o
    309.481 501.115 o
    324.812 502.969 o
    339.026 497.007 o
    348.092 485.235 o
    0 0 z
  EndSpiro
284.515 443.947 m 6
 263.767 446.836 248.42 432.131 245.482 411.476 c 6
 232.999 323.493 l 6
 230.562 306.385 253.557 303.181 255.984 320.298 c 6
 268.158 406.004 l 5
 275.541 404.978 l 5
 250.266 226.96 l 5
 283.17 222.38 l 5
 294.58 302.722 l 5
 301.963 301.695 l 5
 290.343 221.39 l 5
 323.257 216.809 l 5
 348.732 394.799 l 5
 355.906 393.8 l 5
 343.741 308.095 l 6
 341.295 290.851 364.125 287.674 366.517 304.927 c 6
 378.945 392.486 l 6
 381.654 411.53 372.872 431.662 350.114 434.83 c 6
 284.515 443.947 l 6
  Spiro
    284.515 443.947 ]
    265.843 441.41 o
    252.286 429.701 o
    245.482 411.476 [
    232.999 323.493 ]
    237.326 311.264 o
    248.416 309.721 o
    255.984 320.298 [
    268.158 406.004 v
    275.541 404.978 v
    250.266 226.96 v
    283.17 222.38 v
    294.58 302.722 v
    301.963 301.695 v
    290.343 221.39 v
    323.257 216.809 v
    348.732 394.799 v
    355.906 393.8 v
    343.741 308.095 ]
    348.018 295.783 o
    359.016 294.252 o
    366.517 304.927 [
    378.945 392.486 ]
    377.737 411.207 o
    368.292 426.689 o
    350.114 434.83 [
    0 0 z
  EndSpiro
752.865 414.806 m 4
 750.62 398.966 735.682 387.95 719.498 390.2 c 4
 703.323 392.45 692.03 407.12 694.276 422.96 c 4
 696.522 438.79 711.46 449.815 727.645 447.565 c 4
 743.819 445.315 755.111 430.646 752.865 414.806 c 4
  Spiro
    752.865 414.806 o
    746.822 400.898 o
    734.829 392.054 o
    719.498 390.2 o
    705.283 396.164 o
    696.217 407.941 o
    694.276 422.96 o
    700.32 436.863 o
    712.314 445.71 o
    727.645 447.565 o
    741.859 441.601 o
    750.925 429.825 o
    0 0 z
  EndSpiro
686.566 383.081 m 4
 665.827 385.97 650.471 371.265 647.543 350.601 c 6
 635.051 262.627 l 6
 632.623 245.509 655.617 242.314 658.045 259.432 c 6
 670.21 345.138 l 5
 677.593 344.103 l 5
 652.325 166.095 l 5
 685.229 161.514 l 5
 696.631 241.847 l 5
 704.014 240.82 l 5
 692.403 160.515 l 5
 725.308 155.942 l 5
 750.793 333.924 l 5
 757.966 332.925 l 5
 745.792 247.229 l 6
 743.347 229.984 766.177 226.808 768.577 244.061 c 6
 781.006 331.62 l 6
 783.706 350.664 774.933 370.796 752.175 373.955 c 6
 686.566 383.081 l 4
  Spiro
    686.566 383.081 o
    667.899 380.544 o
    654.342 368.832 o
    647.543 350.601 [
    635.051 262.627 ]
    639.384 250.394 o
    650.476 248.853 o
    658.045 259.432 [
    670.21 345.138 v
    677.593 344.103 v
    652.325 166.095 v
    685.229 161.514 v
    696.631 241.847 v
    704.014 240.82 v
    692.403 160.515 v
    725.308 155.942 v
    750.793 333.924 v
    757.966 332.925 v
    745.792 247.229 ]
    750.07 234.916 o
    761.071 233.386 o
    768.577 244.061 [
    781.006 331.62 ]
    779.794 350.34 o
    770.35 365.82 o
    752.175 373.955 [
    0 0 z
  EndSpiro
EndSplineSet
EndChar

StartChar: exclam
Encoding: 33 33 53
Width: 1024
VWidth: 1024
Flags: W
HStem: -7 836<296.5 527.5>
VStem: -6 836<295.5 526.5>
LayerCount: 2
Fore
SplineSet
412 -7 m 0
 181 -7 -6 180 -6 411 c 0
 -6 642 181 829 412 829 c 0
 643 829 830 642 830 411 c 0
 830 180 643 -7 412 -7 c 0
412 709 m 1
 327 530 l 1
 130 505 l 1
 274 368 l 1
 238 173 l 1
 412 268 l 1
 586 173 l 1
 550 368 l 1
 694 505 l 1
 497 530 l 1
 412 709 l 1
EndSplineSet
EndChar

StartChar: quotedbl
Encoding: 34 34 54
Width: 435
Flags: W
LayerCount: 2
Fore
SplineSet
175 75 m 2
 163.666 75.0001 154.333 79.6667 147 89 c 2
 58 207 l 2
 52 214.333 49.6667 222.833 51 232.5 c 0
 52.3333 242.167 57 250 65 256 c 0
 72.3333 261.333 80.8333 263.333 90.5 262 c 0
 100.167 260.667 107.667 256.333 113 249 c 2
 172 171 l 1
 320 409 l 2
 325.334 417 332.667 422.166 342 424.5 c 0
 351.334 426.833 360.001 425.333 368 420 c 256
 376 414.667 381.166 407.333 383.5 398 c 0
 385.833 388.667 384.333 380 379 372 c 2
 205 91 l 2
 201.666 86.3334 197.499 82.5 192.5 79.5 c 0
 187.5 76.5 182.333 75 177 75 c 2
 175 75 l 2
EndSplineSet
EndChar

StartChar: numbersign
Encoding: 35 35 55
Width: 335
Flags: W
HStem: 120 260<72.1667 88.8333 247.167 263.833>
VStem: 50 235<141.167 157.833 341.167 357.833>
LayerCount: 2
Fore
SplineSet
276 171 m 1
 282 165 285 157.833 285 149.5 c 0
 285 141.167 282 134.333 276 129 c 1
 270.667 123 263.833 120 255.5 120 c 0
 247.167 120 240 123 234 129 c 2
 168 204 l 1
 101 129 l 2
 95.6667 123 88.8333 120 80.5 120 c 0
 72.1667 120 65 123 59 129 c 0
 53 134.333 50 141.167 50 149.5 c 0
 50 157.833 53 165 59 171 c 2
 128 250 l 1
 59 329 l 1
 53 334.334 50 341.167 50 349.5 c 0
 50 357.834 53 365.001 59 371 c 256
 65 377 72.1667 380 80.5 380 c 0
 88.8334 380 95.6668 377 101 371 c 2
 168 295 l 1
 234 371 l 2
 240 377 247.167 380 255.5 380 c 0
 263.835 380 270.668 377 276 371 c 0
 282 365 285 357.833 285 349.5 c 0
 285 341.167 282 334.333 276 329 c 1
 207 250 l 1
 276 171 l 1
EndSplineSet
EndChar

StartChar: dollar
Encoding: 36 36 56
Width: 520
Flags: W
HStem: 40 185<166.357 353.287> 276 184<166.357 353.287>
VStem: 50 83<225.725 275.135> 386 84<225.725 275.134>
LayerCount: 2
Fore
SplineSet
260 460 m 0
 288.667 460 315.833 454.5 341.5 443.5 c 0
 367.167 432.5 389.5 417.5 408.5 398.5 c 0
 427.5 379.5 442.5 357.166 453.5 331.5 c 0
 464.5 305.833 470 278.666 470 250 c 0
 470 220.667 464.5 193.333 453.5 168 c 0
 442.5 142.667 427.5 120.5 408.5 101.5 c 0
 389.5 82.5 367.166 67.5 341.5 56.5 c 0
 315.833 45.5 288.666 40 260 40 c 0
 230.667 40 203.333 45.5 178 56.5 c 0
 152.667 67.5 130.5 82.5 111.5 101.5 c 0
 92.5 120.5 77.5 142.667 66.5 168 c 0
 55.5 193.333 50 220.667 50 250 c 0
 50 278.667 55.5 305.833 66.5 331.5 c 0
 77.5 357.167 92.5 379.5 111.5 398.5 c 0
 130.5 417.5 152.667 432.5 178 443.5 c 0
 203.333 454.5 230.667 460 260 460 c 0
133 276 m 1
 133 225 l 1
 386 225 l 1
 386 276 l 1
 133 276 l 1
EndSplineSet
EndChar

StartChar: percent
Encoding: 37 37 57
Width: 520
Flags: W
HStem: 40 84<235.725 285.134> 376 84<235.725 285.135>
VStem: 50 84<224.404 273.832> 387 83<224.404 273.831>
LayerCount: 2
Fore
SplineSet
260 460 m 0
 288.667 460 315.833 454.5 341.5 443.5 c 0
 367.167 432.5 389.5 417.5 408.5 398.5 c 0
 427.5 379.5 442.5 357.166 453.5 331.5 c 0
 464.5 305.833 470 278.666 470 250 c 0
 470 220.667 464.5 193.333 453.5 168 c 0
 442.5 142.667 427.5 120.5 408.5 101.5 c 0
 389.5 82.5 367.166 67.5 341.5 56.5 c 0
 315.833 45.5 288.666 40 260 40 c 0
 230.667 40 203.333 45.5 178 56.5 c 0
 152.667 67.5 130.5 82.5 111.5 101.5 c 0
 92.5 120.5 77.5 142.667 66.5 168 c 0
 55.5 193.333 50 220.667 50 250 c 0
 50 278.667 55.5 305.833 66.5 331.5 c 0
 77.5 357.167 92.5 379.5 111.5 398.5 c 0
 130.5 417.5 152.667 432.5 178 443.5 c 0
 203.333 454.5 230.667 460 260 460 c 0
387 224 m 1
 387 275 l 1
 286 275 l 1
 286 376 l 1
 235 376 l 1
 235 275 l 1
 134 275 l 1
 134 224 l 1
 235 224 l 1
 235 124 l 1
 286 124 l 1
 286 224 l 1
 387 224 l 1
EndSplineSet
EndChar

StartChar: ampersand
Encoding: 38 38 58
Width: 560
Flags: W
HStem: 20 55<195.281 364.807> 425 55<195.173 363.237>
VStem: 50 55<163.984 334.826> 455 55<166.762 334.318>
LayerCount: 2
Fore
SplineSet
280 480 m 256
 312 480 341.833 474 369.5 462 c 0
 397.167 450 421.5 433.5 442.5 412.5 c 0
 463.5 391.5 480 367.166 492 339.5 c 0
 504 311.833 510 282 510 250 c 256
 510 218 504 188.167 492 160.5 c 0
 480 132.833 463.5 108.5 442.5 87.5 c 0
 421.5 66.5 397.166 50 369.5 38 c 0
 341.833 26 312 20 280 20 c 256
 248 20 218.167 26 190.5 38 c 0
 162.833 50 138.5 66.5 117.5 87.5 c 0
 96.5 108.5 80 132.833 68 160.5 c 0
 56 188.167 50 218 50 250 c 256
 50 282 56 311.833 68 339.5 c 0
 80 367.167 96.5 391.5 117.5 412.5 c 0
 138.5 433.5 162.833 450 190.5 462 c 0
 218.167 474 248 480 280 480 c 256
105 250 m 0
 105 207.333 118 170.333 144 139 c 1
 390 385 l 1
 374.667 397.667 357.833 407.5 339.5 414.5 c 0
 321.167 421.5 301.333 425 280 425 c 0
 256 425 233.333 420.5 212 411.5 c 0
 190.667 402.5 172 390 156 374 c 0
 140 358 127.5 339.333 118.5 318 c 0
 109.5 296.667 105 274 105 250 c 0
280 75 m 0
 304 75 326.667 79.5 348 88.5 c 0
 369.333 97.5 387.833 110 403.5 126 c 0
 419.167 142 431.667 160.667 441 182 c 0
 450.333 203.333 455 226 455 250 c 0
 455 271.333 451.5 291.333 444.5 310 c 0
 437.499 328.667 427.666 345.667 415 361 c 1
 169 114 l 1
 184.333 102 201.333 92.5 220 85.5 c 0
 238.667 78.5 258.667 75 280 75 c 0
EndSplineSet
EndChar

StartChar: quotesingle
Encoding: 39 39 59
Width: 601
Flags: W
HStem: 38 124<111 204.937 389.109 490> 38 65<226 375> 443 20G<279.74 322.26>
VStem: 241 120<213 336>
LayerCount: 2
Fore
SplineSet
436 336 m 1x30
 361 336 l 1
 361 213 l 1
 241 213 l 1
 241 336 l 1
 166 336 l 1
 301 463 l 1
 436 336 l 1x30
534 174 m 2
 540 170.666 544.5 165.5 547.5 158.5 c 0
 550.508 151.5 551.342 144.667 550 138 c 2
 536 61 l 2
 534.664 54.3333 530.997 48.8333 525 44.5 c 0
 519 40.1666 512.333 37.9999 505 38 c 2
 97 38 l 2x70
 89.6667 38 83 40.1667 77 44.5 c 0
 71 48.8333 67 54.3333 65 61 c 1
 51 138 l 2
 49.6669 144.667 50.5002 151.5 53.5 158.5 c 0
 56.5 165.5 61 170.667 67 174 c 2
 147 228 l 1
 196 228 l 1
 111 162 l 1
 199 162 l 2xb0
 201.667 162 203.667 161 205 159 c 2
 226 103 l 1
 375 103 l 1x70
 396 159 l 2
 396.667 161 398.667 162 402 162 c 2
 490 162 l 1xb0
 405 228 l 1
 455 228 l 1
 534 174 l 2
EndSplineSet
EndChar

StartChar: parenleft
Encoding: 40 40 60
Width: 500
Flags: W
HStem: 37 125<60 153.937 338.109 439> 37 66<175 324> 442 20G<190 310>
VStem: 190 120<339 462>
LayerCount: 2
Fore
SplineSet
250 212 m 1x30
 115 339 l 1
 190 339 l 1
 190 462 l 1
 310 462 l 1
 310 339 l 1
 385 339 l 1
 250 212 l 1x30
483 174 m 2
 489 170.666 493.5 165.5 496.5 158.5 c 0
 499.5 151.5 500.333 144.667 499 138 c 2
 485 61 l 2
 483.667 54.3333 480 48.6667 474 44 c 0
 468 39.3333 461.333 37 454 37 c 2
 46 37 l 2x70
 38.6667 37 32 39.3334 26 44 c 0
 20 48.6667 16 54.3333 14 61 c 1
 0 138 l 2
 -1.33333 144.667 -0.5 151.5 2.5 158.5 c 0
 5.5 165.5 10 170.667 16 174 c 2
 96 227 l 1
 145 227 l 1
 60 162 l 1
 148 162 l 2xb0
 150.667 162 152.667 161 154 159 c 2
 175 103 l 1
 324 103 l 1x70
 345 159 l 2
 345.667 161 347.667 162 351 162 c 2
 439 162 l 1xb0
 354 227 l 1
 403 227 l 1
 483 174 l 2
EndSplineSet
EndChar

StartChar: parenright
Encoding: 41 41 61
Width: 380
Flags: W
HStem: 384 17<126.801 253.74> 469 31<112.547 265.476>
VStem: 50 31<81 143.746 356.125 410> 147 31<220.005 279.995> 178 25<118.688 154.39> 203 30<220.529 279.471> 300 30<81 142.415 357.583 410>
LayerCount: 2
Fore
SplineSet
330 385 m 2xf6
 330 371.667 325 359 315 347 c 0
 305 335 293.833 323.333 281.5 312 c 0
 269.167 300.667 258 289.833 248 279.5 c 0
 238 269.167 233 259.333 233 250 c 256
 233 240.666 238 230.833 248 220.5 c 0
 258 210.166 269.167 199.333 281.5 188 c 0
 293.834 176.667 305 164.833 315 152.5 c 0
 325 140.167 330 127.333 330 114 c 2
 330 56 l 2
 330 50.6666 326.333 44.8333 319 38.5 c 0
 311.667 32.1667 301.667 26.1667 289 20.5 c 0
 276.333 14.8333 261.5 10 244.5 6 c 0
 227.5 2 209.333 0 190 0 c 256
 170.667 0 152.5 2 135.5 6 c 0
 118.5 10 103.667 14.8333 91 20.5 c 0
 78.3333 26.1667 68.3333 32.1667 61 38.5 c 0
 53.6666 44.8333 50 50.6667 50 56 c 2
 50 114 l 2
 50 127.333 55 140.167 65 152.5 c 0
 75 164.833 86.1667 176.667 98.5 188 c 0
 110.833 199.333 122 210.167 132 220.5 c 0
 142 230.833 147 240.667 147 250 c 256
 147 259.334 142 269.167 132 279.5 c 0
 122 289.834 110.833 300.667 98.5 312 c 0
 86.1667 323.333 75 335 65 347 c 0
 55 359 50 371.667 50 385 c 2
 50 444 l 2
 50 448.667 53.6667 454.333 61 461 c 0
 68.3333 467.667 78.3333 473.833 91 479.5 c 0
 103.667 485.167 118.5 490 135.5 494 c 0
 152.5 498 170.667 500 190 500 c 256
 209.333 500 227.5 498 244.5 494 c 0
 261.5 489.998 276.333 485.165 289 479.5 c 0
 301.667 473.831 311.667 467.664 319 461 c 0
 326.335 454.332 330.002 448.666 330 444 c 2
 330 385 l 2xf6
89 442 m 0
 86.3333 440.667 83.9999 439 82 437 c 0
 78 433 78 430 82 428 c 0
 92.6667 421.332 107.5 415.165 126.5 409.5 c 0
 145.5 403.834 166.667 401 190 401 c 0
 214 401 235.667 403.666 255 409 c 0
 274.333 414.336 289.333 420.002 300 426 c 0
 304.667 429.336 304.833 432.503 300.5 435.5 c 0
 296.167 438.503 293.333 440.67 292 442 c 0
 282.667 446.667 272.667 451 262 455 c 0
 252.667 458.336 242 461.503 230 464.5 c 0
 218 467.5 205.333 469 192 469 c 0
 165.333 469 143.667 465.833 127 459.5 c 0
 110.333 453.167 97.6666 447.333 89 442 c 0
203 250 m 256
 203 265.333 208.167 278.333 218.5 289 c 0
 228.833 299.667 240.667 311.667 254 325 c 0
 263.333 334.334 273.333 344.667 284 356 c 0
 294.667 367.334 300 377 300 385 c 2
 301 410 l 1
 287.667 403.333 271.5 397.333 252.5 392 c 0
 233.5 386.667 212.667 384 190 384 c 0
 168 384 147.333 386.667 128 392 c 0
 108.667 397.333 92.6667 403.333 80 410 c 1
 81 385 l 2
 81 377 86.1666 367.333 96.5 356 c 0
 106.833 344.667 116.667 334.333 126 325 c 0
 146 305 146 305 162 289 c 0
 172.667 278.333 178 265.333 178 250 c 256xf6
 178 234.667 172.667 221.667 162 211 c 0
 146 195 146 195 126 175 c 0
 116.667 165.666 106.833 155.333 96.5 144 c 0
 86.1667 132.667 81 122.667 81 114 c 2
 81 81 l 1
 87 83.6667 95.5 86.6667 106.5 90 c 0
 117.5 93.3333 128.167 97.3333 138.5 102 c 0
 148.833 106.667 158 112.333 166 119 c 0
 174 125.667 178 134 178 144 c 0
 178.001 148.667 179.334 152.167 182 154.5 c 0
 184.666 156.833 187.5 158 190.5 158 c 0
 193.5 157.999 196.334 156.832 199 154.5 c 0
 201.668 152.167 203.001 148.667 203 144 c 0xea
 203 134 207 125.667 215 119 c 0
 223 112.333 232.167 106.667 242.5 102 c 0
 252.833 97.3333 263.5 93.3333 274.5 90 c 0
 285.5 86.6667 294 83.6667 300 81 c 1
 300 114 l 2
 299.999 122.667 294.666 132.667 284 144 c 0
 273.333 155.333 263.333 165.667 254 175 c 0
 240.666 188.333 228.833 200.333 218.5 211 c 0
 208.166 221.667 203 234.667 203 250 c 256
EndSplineSet
EndChar

StartChar: asterisk
Encoding: 42 42 62
Width: 582
Flags: W
HStem: 10 50<204.138 376.919> 178 31<207.908 257.738 340.908 390.496> 291 30<206.188 254.678 339.188 387.678> 439 51<202.124 379.624>
VStem: 51 50<162.563 337.245> 160 41<215.746 289.521> 293 41<215.715 289.521> 480 51<162.225 338.121>
LayerCount: 2
Fore
SplineSet
287 490 m 256
 320.333 490.667 351.667 484.833 381 472.5 c 0
 410.334 460.167 436 443.333 458 422 c 0
 480 400.667 497.5 375.5 510.5 346.5 c 0
 523.503 317.5 530.336 286.333 531 253 c 0
 531 219.667 525 188.5 513 159.5 c 0
 501 130.5 484.166 105 462.5 83 c 0
 440.833 61 415.5 43.5 386.5 30.5 c 0
 357.5 17.5 326.667 10.6667 294 10 c 0
 260.667 9.33333 229.333 15.1667 200 27.5 c 0
 170.667 39.8333 145 56.6667 123 78 c 0
 101 99.3334 83.5 124.5 70.5 153.5 c 0
 57.5 182.5 51 213.667 51 247 c 1
 50.3333 279.667 56.1667 310.667 68.5 340 c 0
 80.8334 369.334 97.6667 395 119 417 c 0
 140.333 439 165.333 456.5 194 469.5 c 0
 222.667 482.5 253.667 489.333 287 490 c 256
293 60 m 0
 319 60.6667 343.5 66.1667 366.5 76.5 c 0
 389.5 86.8334 409.5 100.667 426.5 118 c 0
 443.501 135.333 456.667 155.5 466 178.5 c 0
 475.335 201.5 480.002 226 480 252 c 256
 480 278 474.833 302.5 464.5 325.5 c 0
 454.167 348.5 440.333 368.5 423 385.5 c 0
 405.667 402.5 385.333 415.833 362 425.5 c 0
 338.667 435.167 314 439.667 288 439 c 0
 262 439 237.5 433.833 214.5 423.5 c 0
 191.5 413.167 171.5 399.333 154.5 382 c 0
 137.5 364.667 124.333 344.333 115 321 c 0
 105.667 297.667 101 273 101 247 c 0
 101.667 221 107 196.667 117 174 c 0
 127 151.333 140.667 131.5 158 114.5 c 0
 175.333 97.5 195.667 84.1666 219 74.5 c 0
 242.333 64.8333 267 60 293 60 c 0
232 209 m 0
 245.333 209 254.667 215.667 260 229 c 1
 289 215 l 1
 285.667 209 281.833 203.833 277.5 199.5 c 0
 273.167 195.166 268.333 191.333 263 188 c 0
 251.666 181.333 240 178 228 178 c 0
 208.667 178 192 184.333 178 197 c 1
 166 209.667 160 227.333 160 250 c 0
 160 272 166.333 289.333 179 302 c 0
 191 314.667 207 321 227 321 c 0
 255.667 321 276 310 288 288 c 1
 257 272 l 1
 253.667 279.334 249.667 284.001 245 286 c 1
 239.666 289.337 235.333 291.004 232 291 c 0
 211.333 291 201 277.333 201 250 c 0
 201 238.667 203.667 228.667 209 220 c 1
 214.333 212.667 222 209 232 209 c 0
365 209 m 0
 377.667 209 387 215.667 393 229 c 1
 422 215 l 1
 415.332 203.667 406.666 194.667 396 188 c 0
 384 181.333 372.333 178 361 178 c 0
 341.667 178 325 184.333 311 197 c 1
 299 209.667 293 227.333 293 250 c 0
 293 272 299.333 289.333 312 302 c 0
 324 314.667 340 321 360 321 c 0
 388.667 321 409 310 421 288 c 1
 390 272 l 1
 386.667 279.334 382.667 284.001 378 286 c 1
 372.667 289.337 368.333 291.004 365 291 c 0
 344.333 291 334 277.333 334 250 c 0
 334.002 237.333 336.669 227.333 342 220 c 256
 347.335 212.667 355.001 209 365 209 c 0
EndSplineSet
EndChar

StartChar: plus
Encoding: 43 43 63
Width: 795
Flags: W
HStem: 0 181<359 398 398 398> 404 53<424 489 437 489 437 489> 521 182<415.5 437 437 489>
LayerCount: 2
Fore
SplineSet
307 404 m 1
 307 404 l 1
 307 339 l 1
 359 339 l 1
 359 181 l 1
 424 181 l 1
 424 339 l 1
 489 339 l 1
 489 404 l 1
 424 404 l 1
 424 437 l 2
 424 448 431 457 437 457 c 2
 489 457 l 1
 489 521 l 1
 437 521 l 2
 394 521 359 483 359 436 c 2
 359 404 l 1
 307 404 l 1
398 0 m 1
 398 0 l 1
 204 0 47 157 47 351 c 0
 47 545 204 703 398 703 c 0
 592 703 749 545 749 351 c 0
 749 157 592 0 398 0 c 1
EndSplineSet
EndChar

StartChar: comma
Encoding: 44 44 64
Width: 796
Flags: W
HStem: -2 186<400 466 274.5 496> 274 184<274.5 287 287 287> 408 50<242 317.5 242 317.5> 523 177<242 402 242 402>
VStem: 47 195<216.5 343 343 408 216.5 445.5> 332 184<216.5 241.5> 466 50<184 245.5> 581 169<252 277.5>
LayerCount: 2
Fore
SplineSet
287 274 m 1xdd
 287 274 l 1
 262 274 242 254 242 229 c 0
 242 204 262 184 287 184 c 0
 312 184 332 204 332 229 c 0
 332 254 312 274 287 274 c 1xdd
402 700 m 1
 402 700 l 1
 595 698 750 542 750 349 c 0
 750 155 593 -2 399 -2 c 0
 205 -2 47 155 47 349 c 0
 47 542 203 698 395 700 c 1
 402 700 l 1
242 408 m 1xbb
 242 408 l 1
 242 343 l 1
 284 343 324 326 354 296 c 0
 384 266 400 226 400 184 c 1
 466 184 l 1
 466 307 365 408 242 408 c 1xbb
242 523 m 1
 242 523 l 1
 242 458 l 1
 393 458 516 335 516 184 c 1
 581 184 l 1
 581 371 429 523 242 523 c 1
EndSplineSet
EndChar

StartChar: hyphen
Encoding: 45 45 65
Width: 796
Flags: W
HStem: 0 21G<302 496> 682 20G<399 399 399 496>
LayerCount: 2
Fore
SplineSet
542 344 m 1
 542 344 l 1
 564 344 578 352 586 361 c 1
 573 359 554 361 544 365 c 1
 565 367 579 377 585 390 c 1
 577 385 553 380 540 385 c 1
 540 388 539 391 538 393 c 0
 528 430 494 459 459 456 c 1
 462 457 465 458 468 459 c 0
 471 460 494 464 491 472 c 0
 488 479 460 467 454 465 c 1
 461 468 473 472 474 480 c 1
 463 479 453 474 445 466 c 1
 448 470 450 473 450 478 c 1
 422 459 405 423 392 387 c 1
 381 397 372 405 363 410 c 0
 340 422 311 436 267 452 c 1
 266 437 274 418 299 405 c 1
 294 406 284 404 276 402 c 1
 279 385 290 371 318 365 c 1
 305 364 298 361 292 355 c 1
 298 343 313 329 339 332 c 1
 310 319 327 296 350 300 c 1
 310 259 247 262 211 296 c 1
 306 167 511 220 542 344 c 1
399 702 m 1
 399 702 l 1
 593 702 750 545 750 351 c 0
 750 157 593 0 399 0 c 0
 205 0 47 157 47 351 c 0
 47 545 205 702 399 702 c 1
EndSplineSet
EndChar

StartChar: period
Encoding: 46 46 66
Width: 796
Flags: W
HStem: 0 189<374 395 278 399 278 399> 297 63<509.5 519> 331 29<307 326> 479 224<396.5 407>
VStem: 47 231<254 311 189 448> 301 34<203 206 206 294> 334 33<384.5 389 389 425 425 425> 356 55<214 294 294 294> 395 59 432 22 432 50<189 219 197 219 209 219 214 219 219 266 214 275> 478 20<360 388 388 476> 522 228<216 448 219 448 256 266 256 256 360 448 254 476 254 476>
LayerCount: 2
Fore
SplineSet
432 209 m 1xbd58
 432 209 l 1
 432 275 l 1
 433 276 435 277 436 278 c 1
 438 278 439 279 441 279 c 0
 444 279 446 278 447 276 c 0
 449 274 449 272 449 268 c 2
 449 214 l 2
 449 210 449 208 448 207 c 0
 446 205 445 204 442 204 c 0
 440 204 439 205 437 205 c 0
 435 206 434 207 432 209 c 1xbd58
506 276 m 1
 506 276 l 1
 507 277 510 278 513 278 c 0
 516 278 519 277 520 276 c 0
 521 274 522 270 522 266 c 2
 522 256 l 1
 504 256 l 1
 504 266 l 2
 504 270 504 274 506 276 c 1
401 377 m 1
 401 377 l 1
 398 377 395 378 393 380 c 0
 392 382 391 384 391 387 c 2
 391 450 l 2
 391 453 392 455 394 456 c 1
 395 458 398 459 401 459 c 0
 404 459 406 458 408 456 c 0
 410 455 411 453 411 450 c 2
 411 387 l 2
 411 384 410 382 408 380 c 0
 406 378 404 377 401 377 c 1
253 331 m 1
 253 331 l 1
 253 311 l 1
 278 311 l 1
 278 189 l 1
 301 189 l 1
 301 311 l 1
 326 311 l 1
 326 331 l 1
 253 331 l 1
302 517 m 1
 302 517 l 1
 276 517 l 1
 307 422 l 1
 307 360 l 1
 334 360 l 1
 334 425 l 1xda58
 365 517 l 1
 338 517 l 1
 321 454 l 1
 320 454 l 1
 302 517 l 1
367 449 m 1
 367 449 l 1
 367 389 l 2
 367 380 370 372 376 366 c 0
 382 360 390 357 401 357 c 0
 411 357 420 360 426 366 c 0
 432 371 435 379 435 389 c 2
 435 449 l 2
 435 457 432 465 426 470 c 0
 420 476 412 479 402 479 c 0
 391 479 383 476 376 471 c 1
 370 465 367 458 367 449 c 1
451 295 m 1
 451 295 l 1
 447 295 444 295 441 293 c 0
 438 291 435 289 432 286 c 1
 432 331 l 1
 411 331 l 1
 411 189 l 1xbd58
 432 189 l 1
 432 197 l 1
 435 194 438 192 441 190 c 0
 444 189 448 188 452 188 c 0
 458 188 463 190 466 194 c 0
 469 198 471 203 471 211 c 2
 471 269 l 2
 471 278 469 284 466 289 c 1
 462 293 457 295 451 295 c 1
454 476 m 1
 454 476 l 1
 454 379 l 2
 454 372 456 367 458 364 c 0
 461 360 465 358 471 358 c 0
 475 358 480 360 484 362 c 0
 489 365 494 368 498 373 c 1
 498 360 l 1
 522 360 l 1
 522 476 l 1
 498 476 l 1
 498 388 l 1
 496 385 493 383 491 382 c 0
 488 380 486 379 484 379 c 0
 482 379 480 380 479 381 c 0
 478 382 478 384 478 387 c 2
 478 476 l 1
 454 476 l 1
544 266 m 1
 544 266 l 1
 544 276 541 283 536 289 c 0
 531 294 524 297 514 297 c 0
 505 297 497 294 491 288 c 0
 485 282 482 275 482 266 c 2
 482 219 l 2xdd28
 482 209 485 201 490 195 c 0
 496 189 503 186 512 186 c 0
 523 186 531 189 536 194 c 0
 541 200 544 208 544 219 c 2
 544 224 l 1
 522 224 l 1
 522 219 l 2
 522 213 522 209 520 207 c 0
 519 206 516 205 513 205 c 0
 510 205 507 206 506 208 c 0
 504 210 504 214 504 219 c 2
 504 239 l 1
 544 239 l 1
 544 266 l 1
395 189 m 1xdc98
 395 189 l 1
 395 294 l 1xdc98
 374 294 l 1
 374 214 l 1
 372 212 370 210 368 209 c 0
 365 207 363 207 362 207 c 0
 360 207 358 207 357 208 c 0
 357 209 356 211 356 214 c 2
 356 294 l 1xdd58
 335 294 l 1
 335 206 l 2
 335 200 336 196 339 192 c 0
 341 189 345 188 350 188 c 0
 354 188 358 189 362 191 c 0
 366 193 370 196 374 201 c 1
 374 189 l 1
 395 189 l 1xdc98
399 0 m 1
 399 0 l 1
 205 0 47 157 47 351 c 0
 47 545 205 703 399 703 c 0
 593 703 750 545 750 351 c 0
 750 157 593 0 399 0 c 1
EndSplineSet
EndChar

StartChar: slash
Encoding: 47 47 67
Width: 796
Flags: W
HStem: 4 21G<302 496> 687 20G<399 399 399 496>
LayerCount: 2
Fore
SplineSet
399 707 m 1
 399 707 l 1
 593 707 750 550 750 356 c 0
 750 161 593 4 399 4 c 0
 205 4 47 161 47 356 c 0
 47 550 205 707 399 707 c 1
EndSplineSet
EndChar

StartChar: bracketright
Encoding: 93 93 68
Width: 1015
Flags: W
HStem: 608.492 21G<256.594 392.715 485.652 640.225> 718.756 20G<471.945 553.985>
VStem: 642.106 45.8418<575.346 602.976>
LayerCount: 2
Fore
SplineSet
874.509 470.11 m 0
 880.137 512.283 850.614 548.643 814.292 553.323 c 2
 687.948 569.46 l 1
 649.389 754.083 l 1
 558.741 765.675 l 1
 468.093 777.267 l 1
 382.582 608.492 l 1
 256.594 624.593 l 2
 219.998 629.21 182.111 601.499 176.565 559.316 c 0
 176.474 558.272 131.95 217.853 131.95 217.853 c 2
 125.795 170.162 156.708 138.393 192.458 133.758 c 2
 750.156 62.4609 l 2
 785.634 57.9883 823.747 80.9287 829.885 128.628 c 2
 829.885 128.628 874.481 469.039 874.509 470.11 c 0
  Spiro
    874.509 470.11 o
    869.485 509.352 o
    847.269 539.064 o
    814.292 553.323 [
    687.948 569.46 v
    649.389 754.083 v
    558.741 765.675 v
    468.093 777.267 v
    382.582 608.492 v
    256.594 624.593 ]
    220.847 619.11 o
    191.623 595.983 o
    176.565 559.316 o
    164.978 470.476 o
    143.477 305.997 o
    131.95 217.853 v
    136.942 175.92 o
    159.543 147.001 o
    192.458 133.758 [
    750.156 62.4609 ]
    785.197 67.0142 o
    814.394 89.3109 o
    829.885 128.628 v
    841.428 216.771 o
    862.947 381.253 o
    0 0 z
  EndSpiro
479.44 738.756 m 1
 553.985 729.243 l 1
 628.522 719.722 l 1
 642.106 575.346 l 1
 428.434 602.66 l 1
 479.44 738.756 l 1
  Spiro
    479.44 738.756 v
    553.985 729.243 v
    628.522 719.722 v
    642.106 575.346 v
    428.434 602.66 v
    0 0 z
  EndSpiro
EndSplineSet
EndChar

StartChar: asciicircum
Encoding: 94 94 69
Width: 1000
VWidth: 0
Flags: W
HStem: -207.314 31.6602<38.2266 129.317 181.152 272.364> 288.913 6.25879<136.792 136.792 166.507 171.187> 297.178 6.31934<136.792 142.079 166.325 171.187> 405.04 3.64551<136.428 139.77 168.209 171.187> 413.061 3.64648<136.428 139.77 168.209 171.187> 421.082 3.64648<136.428 139.77 168.209 171.187> 429.164 3.58594<136.428 139.77 168.209 171.187> 437.186 3.58594<136.428 139.77 168.209 171.187> 450.068 3.64648<133.814 139.77 168.209 173.86> 468.906 5.65137<159.397 163.895> 495.401 5.65137<147.365 150.343 158.304 160.613> 585.094 2.97754<147.73 150.343 158.304 160.917> 650.905 5.65137<147.73 150.343 158.304 161.281> 741.441 20G<150.343 158.304>
VStem: 139.77 28.4395<109.84 288.913 295.172 297.178 303.497 315.562 393.66 405.04 408.686 413.061 416.707 421.082 424.729 429.164 432.75 437.186 440.771 450.068 468.906 474.558> 150.343 7.96094<474.558 761.441>
LayerCount: 2
Fore
SplineSet
150.343 761.441 m 1xfffd
 158.304 761.441 l 1
 158.304 656.557 l 1
 161.281 656.557 l 1
 161.281 650.905 l 1
 158.304 650.905 l 1
 158.304 588.071 l 1
 160.917 588.071 l 1
 160.917 585.094 l 1
 158.304 585.094 l 1
 158.304 501.053 l 1
 160.613 501.053 l 1
 160.613 495.401 l 1
 158.304 495.401 l 1
 158.304 474.558 l 1xfffd
 163.895 474.558 l 1
 163.895 468.906 l 1
 159.397 468.906 l 1
 165.475 453.715 l 1
 173.86 453.715 l 1
 173.86 450.068 l 1
 168.209 450.068 l 1
 168.209 440.771 l 1
 171.187 440.771 l 1
 171.187 437.186 l 1
 168.209 437.186 l 1
 168.209 432.75 l 1
 171.187 432.75 l 1
 171.187 429.164 l 1
 168.209 429.164 l 1
 168.209 424.729 l 1
 171.187 424.729 l 1
 171.187 421.082 l 1
 168.209 421.082 l 1
 168.209 416.707 l 1
 171.187 416.707 l 1
 171.187 413.062 l 1
 168.209 413.062 l 1
 168.209 408.686 l 1
 171.187 408.686 l 1
 171.187 405.04 l 1
 168.209 405.04 l 1
 168.209 400.969 l 1
 187.005 394.869 200.659 376.406 200.659 354.603 c 0
 200.659 332.012 185.998 313.01 166.143 307.629 c 1
 166.203 303.497 l 1
 171.187 303.497 l 1
 171.187 297.178 l 1
 166.325 297.178 l 1
 166.386 295.172 l 1
 171.187 295.172 l 1
 171.187 288.913 l 1
 166.507 288.913 l 1
 174.894 -156.816 l 1
 174.954 -156.816 l 1
 181.152 -175.654 l 1
 259.057 -175.654 l 1
 294.24 -168.971 l 1
 293.269 -169.518 l 1
 294.24 -169.335 l 1
 272.364 -181.854 l 1
 272.364 -191.697 l 1
 299.102 -208.773 l 1
 298.494 -208.773 l 1
 299.102 -209.138 l 1
 289.986 -208.955 l 1
 272.729 -201.056 l 1
 272.729 -206.95 l 1
 272.729 -207.314 l 1
 157.514 -207.314 l 1
 153.017 -207.314 l 1
 37.8018 -207.314 l 1
 37.8018 -206.95 l 1
 37.8018 -201.056 l 1
 20.6045 -208.955 l 1
 11.4287 -209.138 l 1
 12.0361 -208.773 l 1
 11.4287 -208.773 l 1
 38.2266 -191.697 l 1
 38.2266 -181.854 l 1
 16.29 -169.335 l 1
 17.2627 -169.518 l 1
 16.29 -168.971 l 1
 51.5352 -175.654 l 1
 129.317 -175.654 l 1
 135.516 -156.816 l 1
 135.638 -156.816 l 1
 141.957 288.913 l 1
 136.792 288.913 l 1
 136.792 295.172 l 1
 142.079 295.172 l 1
 142.079 297.178 l 1
 136.792 297.178 l 1
 136.792 303.497 l 1
 142.2 303.497 l 1
 142.261 307.872 l 1
 122.838 313.558 108.596 332.335 108.596 354.603 c 0
 108.596 375.89 121.646 393.961 139.77 400.482 c 1
 139.77 405.04 l 1
 136.428 405.04 l 1
 136.428 408.686 l 1
 139.77 408.686 l 1
 139.77 413.061 l 1
 136.428 413.061 l 1
 136.428 416.707 l 1
 139.77 416.707 l 1
 139.77 421.082 l 1
 136.428 421.082 l 1
 136.428 424.729 l 1
 139.77 424.729 l 1
 139.77 429.164 l 1
 136.428 429.164 l 1
 136.428 432.75 l 1
 139.77 432.75 l 1
 139.77 437.186 l 1
 136.428 437.186 l 1
 136.428 440.771 l 1
 139.77 440.771 l 1
 139.77 450.068 l 1xfffe
 133.814 450.068 l 1
 133.814 453.715 l 1
 142.504 453.715 l 1
 148.581 468.906 l 1
 145.057 468.906 l 1
 145.057 474.558 l 1
 150.343 474.558 l 1
 150.343 495.401 l 1
 147.365 495.401 l 1
 147.365 501.053 l 1
 150.343 501.053 l 1
 150.343 585.094 l 1
 147.73 585.094 l 1
 147.73 588.071 l 1
 150.343 588.071 l 1
 150.343 650.905 l 1
 147.73 650.905 l 1
 147.73 656.557 l 1
 150.343 656.557 l 1
 150.343 761.441 l 1xfffd
EndSplineSet
EndChar

StartChar: underscore
Encoding: 95 95 70
Width: 1000
VWidth: 0
Flags: W
VStem: 641.321 44.042<435.781 464.294>
LayerCount: 2
Fore
SplineSet
864.597 332.316 m 0
 864.571 331.263 821.726 -3.42188 821.726 -3.42188 c 2
 815.829 -50.3193 779.212 -72.874 745.128 -68.4766 c 2
 209.331 1.62109 l 2
 174.985 6.17871 145.286 37.4141 151.199 84.3018 c 2
 151.199 84.3018 193.975 418.996 194.062 420.022 c 0
 199.391 461.495 235.79 488.739 270.948 484.2 c 2
 391.989 468.37 l 1
 474.142 634.306 l 1
 561.23 622.909 l 1
 648.318 611.513 l 1
 685.363 429.994 l 1
 806.745 414.129 l 2
 841.642 409.528 870.004 373.78 864.597 332.316 c 0
485.043 596.443 m 1
 436.04 462.637 l 1
 641.321 435.781 l 1
 628.271 577.729 l 1
 556.662 587.091 l 1
 485.043 596.443 l 1
558.994 309.026 m 0
 561.178 324.777 550.347 339.351 534.807 341.562 c 0
 519.259 343.774 504.89 332.794 502.705 317.034 c 0
 500.521 301.275 511.345 286.711 526.893 284.499 c 0
 542.433 282.287 556.811 293.268 558.994 309.026 c 0
495.988 282.791 m 2
 476.063 285.632 461.284 270.979 458.437 250.433 c 2
 446.295 162.912 l 2
 443.937 145.878 466.019 142.737 468.386 159.762 c 2
 480.213 245.025 l 1
 487.306 244.017 l 1
 462.743 66.9141 l 1
 494.354 62.4199 l 1
 505.439 142.339 l 1
 512.532 141.33 l 1
 501.247 61.4375 l 1
 532.858 56.9424 l 1
 557.622 234.01 l 1
 564.515 233.027 l 1
 552.688 147.763 l 2
 550.312 130.614 572.245 127.491 574.577 144.648 c 2
 586.657 231.762 l 2
 589.287 250.706 580.884 270.713 559.012 273.818 c 2
 495.988 282.791 l 2
360.718 332.422 m 0
 362.875 347.995 352.026 362.41 336.487 364.622 c 0
 320.938 366.834 306.587 356.003 304.43 340.43 c 0
 302.271 324.856 313.121 310.442 328.66 308.23 c 0
 344.209 306.019 358.561 316.849 360.718 332.422 c 0
297.773 306.594 m 2
 277.84 309.434 263.096 294.976 260.273 274.668 c 2
 248.28 188.165 l 2
 245.939 171.345 268.03 168.194 270.362 185.024 c 2
 282.059 269.288 l 1
 289.151 268.279 l 1
 264.868 93.2568 l 1
 296.48 88.7529 l 1
 307.443 167.743 l 1
 314.536 166.734 l 1
 303.372 87.7793 l 1
 334.993 83.2754 l 1
 359.469 258.271 l 1
 366.36 257.29 l 1
 354.673 173.025 l 2
 352.323 156.072 374.257 152.948 376.555 169.911 c 2
 388.495 255.998 l 2
 391.099 274.722 382.66 294.516 360.797 297.63 c 2
 297.773 306.594 l 2
747.731 277.942 m 0
 749.889 293.516 739.04 307.938 723.5 310.15 c 0
 707.952 312.362 693.601 301.523 691.443 285.959 c 0
 689.285 270.386 700.135 255.963 715.674 253.75 c 0
 731.223 251.538 745.574 262.369 747.731 277.942 c 0
684.036 246.751 m 0
 664.111 249.592 649.357 235.133 646.545 214.817 c 2
 634.543 128.323 l 2
 632.211 111.493 654.302 108.352 656.634 125.182 c 2
 668.321 209.446 l 1
 675.414 208.429 l 1
 651.14 33.4141 l 1
 682.752 28.9102 l 1
 693.705 107.892 l 1
 700.798 106.883 l 1
 689.644 27.9277 l 1
 721.256 23.4326 l 1
 745.74 198.421 l 1
 752.632 197.438 l 1
 740.936 113.184 l 2
 738.586 96.2295 760.52 93.1064 762.825 110.068 c 2
 774.767 196.155 l 2
 777.36 214.879 768.932 234.673 747.067 237.778 c 2
 684.036 246.751 l 0
EndSplineSet
EndChar

StartChar: grave
Encoding: 96 96 71
Width: 770
Flags: W
HStem: -22 72<315 455 315 474.5> 557 71<315 455>
VStem: 60 71<234 374 234 393> 638 72<234 374>
LayerCount: 2
Fore
SplineSet
385 628 m 0
 564 628 710 483 710 303 c 0
 710 124 564 -22 385 -22 c 0
 205 -22 60 124 60 303 c 0
 60 483 205 628 385 628 c 0
385 50 m 0
 525 50 638 164 638 304 c 0
 638 444 525 557 385 557 c 0
 245 557 131 444 131 304 c 0
 131 164 245 50 385 50 c 0
471 264 m 2
 515 264 520 336 471 336 c 2
 394 336 l 1
 300 440 l 1
 268 472 217 424 248 391 c 2
 353 276 l 2
 359 268 368 264 379 264 c 2
 471 264 l 2
EndSplineSet
EndChar
